<svg width="38" height="38" viewBox="0 0 38 38" fill="none" xmlns="http://www.w3.org/2000/svg">
  <g clip-path="url(#clip0_264_406)">
    <path
      d="M18.9563 19.9942C18.8169 20.1923 18.6995 20.3553 18.5864 20.5201C16.7831 23.1741 14.9805 25.8279 13.1784 28.4814C11.5019 30.9496 9.82369 33.4164 8.14372 35.8817C8.11584 35.9204 8.08013 35.9528 8.03891 35.9768C7.99768 36.0008 7.95187 36.0159 7.90444 36.0211C5.53262 36.0006 3.16138 35.9749 0.790727 35.9439C0.764432 35.9439 0.737261 35.936 0.685547 35.9282C0.704694 35.8786 0.726943 35.8303 0.752161 35.7835C2.40642 33.2189 4.06067 30.6548 5.71493 28.0913C7.1822 25.8194 8.65034 23.5481 10.1194 21.2774C11.7473 18.7542 13.3744 16.2293 15.0006 13.7026C15.2408 13.3301 15.4906 12.9646 15.7185 12.5851C15.7769 12.4835 15.7945 12.3635 15.7676 12.2494C15.3293 10.8522 14.8823 9.4586 14.4361 8.06495C14.2451 7.46805 14.0452 6.87466 13.8664 6.27425C13.8086 6.08142 13.713 6.0227 13.5158 6.02357C12.0258 6.02971 10.5445 6.02796 9.05879 6.02796C8.77656 6.02796 8.77568 6.02796 8.77568 5.74923C8.77568 3.92259 8.77568 2.09596 8.77042 0.269324C8.77042 0.0659745 8.83704 0.0203963 9.02811 0.0203963C12.0193 0.0256553 15.0111 0.0256553 18.0035 0.0203963C18.073 0.0115099 18.1434 0.0282259 18.2014 0.067422C18.2595 0.106618 18.3013 0.165613 18.3191 0.233387C19.8968 4.20161 21.4745 8.16838 23.0522 12.1337C24.8928 16.7581 26.7335 21.3831 28.5742 26.0088C29.1456 27.4445 29.7215 28.8793 30.2868 30.3185C30.3543 30.4938 30.4245 30.5271 30.6015 30.4728C32.1696 29.9881 33.7412 29.5165 35.3083 29.0309C35.5056 28.9696 35.5774 29.0108 35.6388 29.2062C36.1735 30.8865 36.7186 32.5633 37.2603 34.2418C37.2787 34.2996 37.2927 34.3583 37.3147 34.439C37.2025 34.4802 37.0973 34.5266 36.9895 34.5564C33.425 35.6859 29.8626 36.8161 26.3023 37.9467C26.1322 38.0002 26.0814 37.9424 26.0244 37.7995C24.937 35.0438 23.8469 32.2892 22.7542 29.5358C21.6854 26.8397 20.6161 24.1436 19.5462 21.4474C19.3858 21.0425 19.228 20.6358 19.0676 20.2308C19.0422 20.1616 19.0071 20.1011 18.9563 19.9942Z"
      fill="#FA7E14"
    />
  </g>
  <defs>
    <clipPath id="clip0_264_406">
      <rect width="38" height="38" fill="white" />
    </clipPath>
  </defs>
</svg>
