<svg width="38" height="38" viewBox="0 0 38 38" fill="none" xmlns="http://www.w3.org/2000/svg">
  <path
    d="M37.7606 19.2302C38.108 18.8829 38.0498 18.2208 37.7606 17.8604L35.9277 16.0275L27.734 8.0796C27.3866 7.73226 26.8463 7.73226 26.4277 8.0796C26.0804 8.42694 25.9456 9.08897 26.4277 9.44938L35.0371 17.8794C35.3844 18.2268 35.3844 18.8888 35.0371 19.2492L26.2437 27.969C25.8963 28.3164 25.8963 28.9784 26.2437 29.3388C26.591 29.6862 27.253 29.628 27.5499 29.3388L35.7437 21.2163L37.7606 19.2302ZM0.239184 19.2302C-0.10816 18.8829 -0.0499721 18.2208 0.239184 17.8604L2.07209 16.0275L10.2658 8.0796C10.6132 7.73226 11.1535 7.73226 11.5721 8.0796C11.9194 8.42694 12.0542 9.08897 11.5721 9.44938L3.14084 17.8806C2.7935 18.228 2.7935 18.89 3.14084 19.2504L11.7502 27.9702C12.0976 28.3176 12.0976 28.9796 11.7502 29.34C11.4029 29.6873 10.7408 29.6292 10.444 29.34L2.07209 21.338L0.239184 19.2302Z"
    fill="#3999C6"
  />
  <path
    d="M20.5334 13.3077L28.2504 1.48315H16.6753L10.4438 19.0582L18.0438 19.1157L12.1022 36.5168L28.4998 13.3095L20.5334 13.3077Z"
    fill="#FCD116"
  />
  <path
    opacity="0.3"
    d="M28.5013 13.3077H20.5332L28.2508 1.48315H22.1927L15.7879 16.0858L23.3879 16.1434L12.1025 36.5091L28.5013 13.3077Z"
    fill="#FF8C00"
  />
</svg>
