<svg width="38" height="38" viewBox="0 0 38 38" fill="none" xmlns="http://www.w3.org/2000/svg">
  <path
    d="M33.768 12.1671C33.692 12.0864 33.6112 12.0056 33.5305 11.9296C33.4497 11.8536 33.3737 11.7681 33.293 11.6921C33.2122 11.6161 33.1362 11.5306 33.0555 11.4546C32.9747 11.3786 32.8987 11.2931 32.818 11.2171C32.7372 11.1411 32.6612 11.0556 32.5805 10.9796C32.4997 10.9036 32.4237 10.8181 32.343 10.7421C32.2622 10.6661 32.1862 10.5806 32.1055 10.5046C34.4615 12.8201 35.8113 15.9701 35.8627 19.2731C35.8627 27.1439 27.8732 33.5469 18.0502 33.5469C12.5497 33.5469 7.62871 31.5376 4.35596 28.3884L4.59346 28.6259L4.83096 28.8634L5.06846 29.1009L5.30596 29.3384L5.54346 29.5759L5.78096 29.8134L6.01846 30.0509C9.28646 33.3331 14.3167 35.4469 19.9502 35.4469C29.7732 35.4469 37.7627 29.0439 37.7627 21.1969C37.7627 17.8434 36.3187 14.6656 33.768 12.1671Z"
    fill="#0B0D11"
  />
  <path
    d="M34.6748 19.2732C34.6748 26.498 27.2316 32.3547 18.0498 32.3547C8.86805 32.3547 1.4248 26.498 1.4248 19.2732C1.4248 14.794 4.2748 10.8372 8.6543 8.49072C13.0338 6.14422 15.7603 3.74072 18.0498 3.74072C20.3393 3.74072 22.2963 5.70247 27.4453 8.49072C31.8248 10.8372 34.6748 14.794 34.6748 19.2732Z"
    fill="#FBF0DF"
  />
  <path
    d="M34.6747 19.2731C34.6724 18.345 34.5445 17.4214 34.2947 16.5276C32.9979 32.3451 13.7034 33.1051 6.11768 28.3741C9.52771 31.0172 13.7358 32.421 18.0497 32.3546C27.2172 32.3546 34.6747 26.4883 34.6747 19.2731Z"
    fill="#F6DECE"
  />
  <path
    d="M11.6516 7.62147C13.7748 6.34847 16.5963 3.95922 19.3703 3.95447C18.9436 3.81653 18.4983 3.74445 18.0498 3.74072C16.9003 3.74072 15.6748 4.33447 14.1311 5.22747C13.5943 5.54097 13.0386 5.88772 12.4496 6.24872C11.3428 6.93272 10.0746 7.70697 8.64956 8.48122C4.12755 10.9275 1.4248 14.9602 1.4248 19.2732C1.4248 19.4632 1.4248 19.6532 1.4248 19.8385C4.3033 9.66872 9.53306 8.89447 11.6516 7.62147Z"
    fill="#FFFEFC"
  />
  <path
    fill-rule="evenodd"
    clip-rule="evenodd"
    d="M16.682 4.94227C16.6887 6.06385 16.4532 7.17366 15.9917 8.1959C15.5301 9.21814 14.8534 10.1287 14.0078 10.8655C13.8748 10.9843 13.9793 11.2123 14.1503 11.1458C15.751 10.5235 17.9123 8.66152 17.0003 4.90427C16.9623 4.69052 16.682 4.74752 16.682 4.94227ZM17.7603 4.94227C18.3415 5.89057 18.7107 6.95334 18.8427 8.05772C18.9747 9.16209 18.8664 10.282 18.525 11.3405C18.468 11.5068 18.6723 11.6493 18.7863 11.5115C19.8265 10.1815 20.7338 7.54052 18.0168 4.69052C17.879 4.56702 17.6653 4.75702 17.7603 4.92327V4.94227ZM19.0713 4.86152C19.9814 5.50588 20.7428 6.33793 21.3041 7.30155C21.8654 8.26516 22.2135 9.33794 22.325 10.4475C22.3202 10.4875 22.331 10.5278 22.3551 10.5601C22.3792 10.5923 22.4148 10.6141 22.4545 10.6208C22.4942 10.6275 22.535 10.6187 22.5684 10.5962C22.6017 10.5736 22.6252 10.5391 22.6338 10.4998C23.0708 8.84202 22.8238 6.01577 19.228 4.54802C19.038 4.47202 18.9145 4.72852 19.0713 4.84252V4.86152ZM10.3028 9.80152C11.3854 9.47808 12.3878 8.93024 13.2447 8.19367C14.1016 7.45711 14.7937 6.54834 15.276 5.52652C15.3615 5.35552 15.6323 5.42202 15.5895 5.61202C14.7678 9.41202 12.0175 10.2053 10.3075 10.1008C10.127 10.1055 10.1318 9.85377 10.3028 9.80152Z"
    fill="#CCBEA7"
  />
  <path
    d="M18.0498 33.547C8.2268 33.547 0.237305 27.144 0.237305 19.2732C0.237305 14.5232 3.1728 10.0915 8.08906 7.43622C9.51406 6.67622 10.7348 5.91147 11.8226 5.24172C12.4211 4.87122 12.9863 4.52447 13.5326 4.20147C15.1998 3.21347 16.6248 2.55322 18.0498 2.55322C19.4748 2.55322 20.7193 3.12322 22.2773 4.04472C22.7523 4.31547 23.2273 4.60997 23.7356 4.93297C24.9183 5.66447 26.2531 6.49097 28.0106 7.43622C32.9268 10.0915 35.8623 14.5185 35.8623 19.2732C35.8623 27.144 27.8728 33.547 18.0498 33.547ZM18.0498 3.74072C16.9003 3.74072 15.6748 4.33447 14.1311 5.22747C13.5943 5.54097 13.0386 5.88772 12.4496 6.24872C11.3428 6.93272 10.0746 7.70697 8.64955 8.48122C4.12755 10.9275 1.4248 14.9602 1.4248 19.2732C1.4248 26.4885 8.88231 32.3595 18.0498 32.3595C27.2173 32.3595 34.6748 26.4885 34.6748 19.2732C34.6748 14.9602 31.9721 10.9275 27.4453 8.49072C25.6498 7.54072 24.2486 6.64772 23.1133 5.94472C22.5956 5.62647 22.1206 5.33197 21.6883 5.07072C20.2491 4.21572 19.1993 3.74072 18.0498 3.74072Z"
    fill="#0B0D11"
  />
  <path
    d="M21.3986 22.7405C21.1852 23.6145 20.6994 24.3979 20.0116 24.9777C19.4951 25.4784 18.8266 25.7926 18.1116 25.8707C17.3751 25.805 16.6831 25.49 16.1498 24.9777C15.469 24.3952 14.9901 23.612 14.7818 22.7405C14.7749 22.6887 14.7799 22.6361 14.7965 22.5866C14.8131 22.5371 14.8408 22.4921 14.8775 22.4549C14.9142 22.4178 14.9589 22.3896 15.0081 22.3724C15.0574 22.3552 15.11 22.3495 15.1618 22.3557H21.0233C21.0748 22.3503 21.1268 22.3565 21.1755 22.3741C21.2241 22.3916 21.2682 22.42 21.3043 22.457C21.3405 22.4941 21.3677 22.5388 21.384 22.5879C21.4003 22.637 21.4053 22.6892 21.3986 22.7405Z"
    fill="#B71422"
  />
  <path
    d="M16.1498 25.0161C16.682 25.5287 17.3715 25.8466 18.1068 25.9186C18.8404 25.8456 19.5281 25.5277 20.059 25.0161C20.2289 24.8578 20.3876 24.688 20.534 24.5079C20.2414 24.1759 19.884 23.9073 19.4837 23.7186C19.0835 23.5299 18.6488 23.4251 18.2065 23.4106C17.7333 23.4219 17.2699 23.5479 16.8562 23.7779C16.4424 24.008 16.0908 24.3351 15.8315 24.7311C15.9408 24.8309 16.0358 24.9259 16.1498 25.0161Z"
    fill="#FF6164"
  />
  <path
    d="M16.2259 24.6408C16.4614 24.3364 16.7628 24.0894 17.1075 23.9183C17.4523 23.7471 17.8313 23.6564 18.2161 23.6528C18.9275 23.6738 19.6052 23.9602 20.1161 24.4556C20.2254 24.3368 20.3299 24.2133 20.4296 24.0898C19.8253 23.5143 19.0267 23.1871 18.1924 23.1731C17.7465 23.1769 17.307 23.2795 16.9054 23.4733C16.5038 23.6671 16.1501 23.9474 15.8696 24.2941C15.9819 24.4161 16.1009 24.5319 16.2259 24.6408Z"
    fill="#0B0D11"
  />
  <path
    d="M18.0925 26.1559C17.301 26.0866 16.5562 25.7518 15.9788 25.2059C15.2435 24.584 14.726 23.7437 14.5015 22.8072C14.4854 22.7238 14.4882 22.6379 14.5096 22.5557C14.5309 22.4735 14.5704 22.3972 14.625 22.3322C14.6901 22.2536 14.7723 22.1909 14.8654 22.1489C14.9584 22.1069 15.0598 22.0867 15.1618 22.0899H21.0233C21.1252 22.0878 21.2262 22.1084 21.3191 22.1503C21.4119 22.1922 21.4943 22.2544 21.56 22.3322C21.6142 22.3974 21.653 22.4739 21.6735 22.5562C21.6941 22.6384 21.6959 22.7242 21.6788 22.8072C21.4544 23.7437 20.9368 24.584 20.2015 25.2059C19.6254 25.7508 18.8824 26.0855 18.0925 26.1559ZM15.1618 22.6409C15.0858 22.6409 15.0668 22.6742 15.062 22.6837C15.2628 23.4958 15.717 24.2228 16.3588 24.7594C16.8281 25.2218 17.4382 25.5143 18.0925 25.5907C18.7452 25.5152 19.3546 25.2263 19.8263 24.7689C20.4661 24.2314 20.9185 23.5045 21.1183 22.6932C21.1079 22.678 21.0936 22.666 21.0768 22.6584C21.0601 22.6509 21.0415 22.6481 21.0233 22.6504L15.1618 22.6409Z"
    fill="#0B0D11"
  />
  <path
    d="M25.2797 23.0353C26.8144 23.0353 28.0585 22.3038 28.0585 21.4013C28.0585 20.4989 26.8144 19.7673 25.2797 19.7673C23.7451 19.7673 22.501 20.4989 22.501 21.4013C22.501 22.3038 23.7451 23.0353 25.2797 23.0353Z"
    fill="#FEBBD0"
  />
  <path
    d="M10.9013 23.0353C12.436 23.0353 13.6801 22.3038 13.6801 21.4013C13.6801 20.4989 12.436 19.7673 10.9013 19.7673C9.36665 19.7673 8.12256 20.4989 8.12256 21.4013C8.12256 22.3038 9.36665 23.0353 10.9013 23.0353Z"
    fill="#FEBBD0"
  />
  <path
    fill-rule="evenodd"
    clip-rule="evenodd"
    d="M12.2077 20.7457C12.7256 20.7467 13.232 20.594 13.6631 20.307C14.0941 20.0199 14.4303 19.6115 14.6291 19.1334C14.8279 18.6552 14.8805 18.1288 14.78 17.6208C14.6796 17.1128 14.4307 16.646 14.0648 16.2795C13.699 15.913 13.2326 15.6632 12.7248 15.5619C12.217 15.4605 11.6905 15.512 11.212 15.71C10.7335 15.908 10.3244 16.2434 10.0366 16.6739C9.74883 17.1044 9.59522 17.6106 9.59521 18.1285C9.59521 18.8218 9.87031 19.4868 10.3601 19.9775C10.8499 20.4682 11.5144 20.7445 12.2077 20.7457ZM23.9735 20.7457C24.4919 20.7495 24.9998 20.5992 25.4327 20.3139C25.8656 20.0286 26.204 19.6212 26.405 19.1433C26.606 18.6654 26.6606 18.1386 26.5617 17.6296C26.4629 17.1207 26.2151 16.6526 25.8499 16.2846C25.4846 15.9167 25.0183 15.6655 24.5101 15.563C24.0019 15.4605 23.4747 15.5112 22.9953 15.7087C22.516 15.9062 22.1061 16.2416 21.8177 16.6725C21.5292 17.1033 21.3752 17.61 21.3752 18.1285C21.3739 18.8197 21.6467 19.4833 22.1337 19.9738C22.6207 20.4644 23.2822 20.742 23.9735 20.7457Z"
    fill="#0B0D11"
  />
  <path
    fill-rule="evenodd"
    clip-rule="evenodd"
    d="M11.3999 18.2949C11.5946 18.2958 11.7851 18.2389 11.9474 18.1315C12.1098 18.024 12.2365 17.8708 12.3117 17.6912C12.3868 17.5116 12.407 17.3138 12.3696 17.1227C12.3322 16.9317 12.2389 16.756 12.1016 16.618C11.9643 16.4801 11.7891 16.3859 11.5982 16.3476C11.4074 16.3093 11.2094 16.3285 11.0295 16.4028C10.8495 16.477 10.6957 16.6031 10.5874 16.7649C10.4792 16.9266 10.4214 17.1169 10.4214 17.3116C10.4214 17.5716 10.5243 17.8209 10.7077 18.0052C10.8911 18.1895 11.1399 18.2936 11.3999 18.2949ZM23.1656 18.2949C23.3603 18.2958 23.5509 18.2389 23.7132 18.1315C23.8755 18.024 24.0023 17.8708 24.0774 17.6912C24.1526 17.5116 24.1727 17.3138 24.1353 17.1227C24.0979 16.9317 24.0047 16.756 23.8673 16.618C23.73 16.4801 23.5548 16.3859 23.364 16.3476C23.1731 16.3093 22.9752 16.3285 22.7952 16.4028C22.6153 16.477 22.4614 16.6031 22.3532 16.7649C22.2449 16.9266 22.1871 17.1169 22.1871 17.3116C22.1871 17.5699 22.2887 17.8179 22.4701 18.0019C22.6514 18.1859 22.8978 18.2911 23.1561 18.2949H23.1656Z"
    fill="white"
  />
</svg>
