<svg width="38" height="38" viewBox="0 0 38 38" fill="none" xmlns="http://www.w3.org/2000/svg">
    <g clip-path="url(#clip0_264_100)">
        <path d="M19 0C24.0391 0 28.8718 2.00178 32.435 5.56497C35.9982 9.12816 38 13.9609 38 19C38 24.0391 35.9982 28.8718 32.435 32.435C28.8718 35.9982 24.0391 38 19 38C13.9609 38 9.12816 35.9982 5.56497 32.435C2.00178 28.8718 0 24.0391 0 19C0 13.9609 2.00178 9.12816 5.56497 5.56497C9.12816 2.00178 13.9609 0 19 0Z" fill="#0B0D11"/>
        <path d="M18.2578 10.7544C12.7359 10.7544 8.43125 14.2353 8.43125 18.5622C8.43125 22.6442 12.3871 25.2493 18.5176 25.1231L18.7031 25.1157L19.3785 25.0935L19.2078 25.5388L19.2301 25.5833C19.279 25.6979 19.3235 25.8142 19.3637 25.9321L19.3785 25.9767L19.4008 26.0509L19.4305 26.1548L19.4527 26.2216L19.4824 26.2958L19.5047 26.3774L19.5344 26.4962L19.5715 26.6224L19.5938 26.704L19.6309 26.8376L19.668 26.9786L19.6977 27.1196L19.7348 27.2681L19.7645 27.372L19.8016 27.5353L19.8387 27.6985L19.8906 27.9212L19.9129 28.0399L19.95 28.2181L19.9871 28.4036L20.0316 28.5966L20.0836 28.8712L20.1281 29.0938L20.1875 29.4056L20.2172 29.5614L20.2691 29.8063L20.3137 30.0587L20.373 30.4001L20.4398 30.7563L20.4992 31.1274L20.566 31.506L20.6328 31.8919L20.6996 32.2927L20.7664 32.7083L20.8184 33.0274L20.9 33.5692L20.9371 33.7919L21.0262 34.3634L21.093 34.831L21.1523 35.1872L21.2191 35.677L21.2563 35.922C25.3309 35.3802 28.9527 33.406 31.5949 30.5188L31.6766 30.4298L31.298 29.0196L30.2961 25.2716L29.6727 22.9411L29.1234 20.8927L28.782 19.6458L28.5668 18.8591L28.4406 18.3841L28.3219 17.9685L28.2773 17.7903L28.2477 17.6938L28.2328 17.6419L28.218 17.5974C27.6391 15.7345 26.5184 14.0868 24.9895 12.8919C23.1934 11.4892 20.9148 10.7544 18.2578 10.7544ZM13.4039 30.5634C12.9215 30.4298 12.4168 30.7118 12.2758 31.1942L12.2684 31.2165L11.4371 34.304C11.9569 34.5612 12.4895 34.7916 13.0328 34.9942L13.159 35.0462L14.057 31.6989L14.0645 31.6767C14.1832 31.1868 13.8938 30.6896 13.4039 30.5634ZM18.577 28.2997C18.0871 28.1661 17.5824 28.4481 17.4414 28.9306L17.434 28.9528L16.1723 33.6286V33.6509C16.1234 33.8829 16.1652 34.1248 16.2891 34.327C16.413 34.5291 16.6096 34.6762 16.8385 34.7379C17.0674 34.7997 17.3113 34.7714 17.52 34.659C17.7288 34.5465 17.8865 34.3584 17.9609 34.1333L17.9684 34.111L19.2301 29.4353V29.413L19.2523 29.3091L19.2598 29.272L19.2301 29.1161L19.1855 28.9009L19.1559 28.7673C19.0969 28.6536 19.015 28.5534 18.9153 28.4729C18.8157 28.3924 18.7005 28.3335 18.577 28.2997ZM9.78203 23.4829L9.72266 23.6239L9.71523 23.6536L8.45352 28.3294L8.44609 28.3517C8.38986 28.586 8.42699 28.8329 8.54962 29.0403C8.67226 29.2478 8.87077 29.3993 9.10316 29.463C9.33556 29.5266 9.58359 29.4973 9.79479 29.3813C10.006 29.2654 10.1638 29.0718 10.2348 28.8415L10.2422 28.8192L11.3852 24.5739C10.7914 24.2622 10.2496 23.8911 9.78203 23.4829ZM6.77617 18.1021C6.28633 17.9759 5.78164 18.2579 5.64062 18.7329L5.6332 18.7552L4.37148 23.431V23.4532C4.31525 23.6875 4.35238 23.9345 4.47501 24.1419C4.59765 24.3493 4.79616 24.5009 5.02855 24.5645C5.26095 24.6282 5.50899 24.5989 5.72018 24.4829C5.93138 24.3669 6.08917 24.1733 6.16016 23.9431L6.16758 23.9208L7.4293 19.245V19.2228C7.54805 18.7329 7.25859 18.2356 6.77617 18.1021ZM35.0609 17.0407C34.5785 16.9146 34.0738 17.1966 33.9328 17.6716L33.9254 17.6938L32.6637 22.3696L32.6562 22.3919C32.5913 22.6301 32.6236 22.8843 32.7461 23.0986C32.8686 23.313 33.0712 23.4699 33.3094 23.5349C33.5476 23.5998 33.8018 23.5675 34.0161 23.445C34.2305 23.3225 34.3874 23.1199 34.4523 22.8817V22.8595L35.7215 18.1837V18.154C35.8402 17.6716 35.5508 17.1743 35.0609 17.0407ZM4.02266 10.7989C2.96542 12.7241 2.29239 14.8365 2.04102 17.0185C2.16277 17.1563 2.32305 17.2546 2.50117 17.3005C2.98359 17.4267 3.48828 17.1446 3.6293 16.6696L3.63672 16.6474L4.89844 11.9716L4.90586 11.9493C5.02461 11.4595 4.73516 10.9622 4.24531 10.8286C4.17254 10.8099 4.09779 10.7999 4.02266 10.7989ZM31.8695 10.8286C31.3797 10.7024 30.8824 10.9845 30.734 11.4595V11.4817L29.4723 16.1575L29.4648 16.1798C29.4086 16.4141 29.4457 16.6611 29.5684 16.8685C29.691 17.0759 29.8895 17.2274 30.1219 17.2911C30.3543 17.3547 30.6023 17.3255 30.8135 17.2095C31.0247 17.0935 31.1825 16.8999 31.2535 16.6696L31.2609 16.6474L32.5227 11.9716L32.5301 11.9493C32.6488 11.4595 32.352 10.9622 31.8695 10.8286Z" fill="white"/>
        <path d="M19.4453 13.8789C19.7603 13.8789 20.0623 14.004 20.285 14.2267C20.5077 14.4494 20.6328 14.7515 20.6328 15.0664C20.6328 15.3814 20.5077 15.6834 20.285 15.9061C20.0623 16.1288 19.7603 16.2539 19.4453 16.2539C19.1304 16.2539 18.8283 16.1288 18.6056 15.9061C18.3829 15.6834 18.2578 15.3814 18.2578 15.0664C18.2578 14.7515 18.3829 14.4494 18.6056 14.2267C18.8283 14.004 19.1304 13.8789 19.4453 13.8789Z" fill="#0B0D11"/>
        <path d="M9.51478 6.38291C9.03236 6.25674 8.52767 6.53877 8.38666 7.01377L8.37923 7.03604L7.11752 11.7118L7.11009 11.7341C7.05386 11.9684 7.09099 12.2154 7.21362 12.4228C7.33626 12.6302 7.53477 12.7817 7.76716 12.8454C7.99956 12.909 8.24759 12.8798 8.45879 12.7638C8.66999 12.6478 8.82778 12.4542 8.89877 12.2239L8.90619 12.2017L10.1679 7.52588L10.1753 7.49619C10.2941 7.01377 10.0046 6.5165 9.51478 6.38291ZM25.7316 7.26611C25.2417 7.13994 24.737 7.42197 24.596 7.89697L24.5886 7.91924L23.7425 11.0661C24.2915 11.336 24.8155 11.6539 25.3085 12.0161L25.3902 12.0829L26.3847 8.40908V8.38682C26.5035 7.89697 26.214 7.39971 25.7316 7.26611ZM17.4785 1.99658C16.8857 2.04983 16.296 2.13406 15.712 2.24893L15.5859 2.27119L14.4132 6.62783L14.4058 6.6501C14.3569 6.8821 14.3987 7.12403 14.5226 7.32618C14.6465 7.52834 14.8431 7.67539 15.072 7.73713C15.3009 7.79887 15.5448 7.77063 15.7535 7.65818C15.9623 7.54574 16.1201 7.35765 16.1945 7.13252L16.2019 7.11025L17.4636 2.43447L17.471 2.41221C17.5052 2.27604 17.5077 2.13388 17.4785 1.99658ZM29.0863 5.2251L28.8413 6.14541L28.8339 6.16768C28.785 6.39968 28.8268 6.6416 28.9507 6.84376C29.0746 7.04592 29.2712 7.19297 29.5001 7.25471C29.7291 7.31645 29.9729 7.2882 30.1817 7.17576C30.3904 7.06332 30.5482 6.87523 30.6226 6.6501L30.63 6.62783L30.6597 6.53135C30.1954 6.09635 29.7073 5.68752 29.1976 5.30674L29.0863 5.2251ZM21.746 2.15244L21.3007 3.80752L21.2933 3.82979C21.2444 4.06179 21.2862 4.30371 21.4101 4.50587C21.534 4.70803 21.7306 4.85508 21.9595 4.91682C22.1884 4.97856 22.4323 4.95031 22.6411 4.83787C22.8498 4.72543 23.0076 4.53733 23.082 4.31221L23.0894 4.28994L23.557 2.5458C23.0045 2.39386 22.4446 2.27 21.8796 2.17471L21.746 2.15244Z" fill="white"/>
    </g>
    <defs>
        <clipPath id="clip0_264_100">
            <rect width="38" height="38" fill="white"/>
        </clipPath>
    </defs>
</svg>
