<svg viewBox="0 0 980 533" fill="none" xmlns="http://www.w3.org/2000/svg">
  <g clip-path="url(#clip0_112_125)">
    <rect x="634" y="400.279" width="133" height="133" rx="66.5" fill="#F3F4F6" />
    <path
      d="M687.158 462.971C686.401 462.971 685.718 462.854 685.11 462.619C684.502 462.374 683.985 462.017 683.558 461.547C683.131 461.067 682.801 460.475 682.566 459.771C682.331 459.057 682.214 458.225 682.214 457.275C682.214 456.337 682.331 455.505 682.566 454.779C682.801 454.043 683.131 453.43 683.558 452.939C683.985 452.438 684.502 452.059 685.11 451.803C685.718 451.547 686.401 451.419 687.158 451.419C688.193 451.419 689.046 451.633 689.718 452.059C690.39 452.475 690.929 453.137 691.334 454.043L689.238 455.131C689.089 454.662 688.854 454.289 688.534 454.011C688.225 453.723 687.766 453.579 687.158 453.579C686.443 453.579 685.867 453.814 685.43 454.283C685.003 454.742 684.79 455.414 684.79 456.299V458.091C684.79 458.977 685.003 459.654 685.43 460.123C685.867 460.582 686.443 460.811 687.158 460.811C687.755 460.811 688.23 460.651 688.582 460.331C688.945 460.001 689.211 459.606 689.382 459.147L691.366 460.299C690.95 461.153 690.401 461.814 689.718 462.283C689.046 462.742 688.193 462.971 687.158 462.971ZM696.348 462.971C695.729 462.971 695.175 462.87 694.684 462.667C694.204 462.465 693.793 462.171 693.452 461.787C693.121 461.403 692.865 460.939 692.684 460.395C692.503 459.851 692.412 459.243 692.412 458.571C692.412 457.899 692.503 457.291 692.684 456.747C692.865 456.203 693.121 455.745 693.452 455.371C693.793 454.987 694.204 454.694 694.684 454.491C695.175 454.289 695.729 454.187 696.348 454.187C696.967 454.187 697.516 454.289 697.996 454.491C698.487 454.694 698.897 454.987 699.228 455.371C699.569 455.745 699.831 456.203 700.012 456.747C700.193 457.291 700.284 457.899 700.284 458.571C700.284 459.243 700.193 459.851 700.012 460.395C699.831 460.939 699.569 461.403 699.228 461.787C698.897 462.171 698.487 462.465 697.996 462.667C697.516 462.87 696.967 462.971 696.348 462.971ZM696.348 461.099C696.817 461.099 697.18 460.955 697.436 460.667C697.692 460.379 697.82 459.969 697.82 459.435V457.723C697.82 457.19 697.692 456.779 697.436 456.491C697.18 456.203 696.817 456.059 696.348 456.059C695.879 456.059 695.516 456.203 695.26 456.491C695.004 456.779 694.876 457.19 694.876 457.723V459.435C694.876 459.969 695.004 460.379 695.26 460.667C695.516 460.955 695.879 461.099 696.348 461.099ZM707.123 461.371H707.043C706.979 461.595 706.878 461.809 706.739 462.011C706.601 462.203 706.43 462.374 706.227 462.523C706.035 462.662 705.811 462.769 705.555 462.843C705.31 462.929 705.054 462.971 704.787 462.971C703.721 462.971 702.915 462.598 702.371 461.851C701.827 461.094 701.555 460.001 701.555 458.571C701.555 457.142 701.827 456.054 702.371 455.307C702.915 454.561 703.721 454.187 704.787 454.187C705.331 454.187 705.811 454.337 706.227 454.635C706.654 454.934 706.926 455.318 707.043 455.787H707.123V450.939H709.491V462.779H707.123V461.371ZM705.571 461.051C706.019 461.051 706.387 460.945 706.675 460.731C706.974 460.507 707.123 460.203 707.123 459.819V457.339C707.123 456.955 706.974 456.657 706.675 456.443C706.387 456.219 706.019 456.107 705.571 456.107C705.123 456.107 704.75 456.267 704.451 456.587C704.163 456.897 704.019 457.318 704.019 457.851V459.307C704.019 459.841 704.163 460.267 704.451 460.587C704.75 460.897 705.123 461.051 705.571 461.051ZM715.21 462.971C714.57 462.971 713.999 462.87 713.498 462.667C712.996 462.454 712.57 462.161 712.218 461.787C711.876 461.403 711.615 460.939 711.434 460.395C711.263 459.851 711.178 459.243 711.178 458.571C711.178 457.91 711.263 457.313 711.434 456.779C711.604 456.235 711.855 455.771 712.186 455.387C712.527 455.003 712.943 454.71 713.434 454.507C713.924 454.294 714.484 454.187 715.114 454.187C715.807 454.187 716.399 454.305 716.89 454.539C717.391 454.774 717.796 455.089 718.106 455.483C718.426 455.878 718.655 456.337 718.794 456.859C718.943 457.371 719.018 457.91 719.018 458.475V459.179H713.626V459.307C713.626 459.862 713.775 460.305 714.074 460.635C714.372 460.955 714.842 461.115 715.482 461.115C715.972 461.115 716.372 461.019 716.682 460.827C716.991 460.625 717.279 460.385 717.546 460.107L718.73 461.579C718.356 462.017 717.866 462.358 717.258 462.603C716.66 462.849 715.978 462.971 715.21 462.971ZM715.162 455.931C714.682 455.931 714.303 456.091 714.026 456.411C713.759 456.721 713.626 457.137 713.626 457.659V457.787H716.57V457.643C716.57 457.131 716.452 456.721 716.218 456.411C715.994 456.091 715.642 455.931 715.162 455.931ZM670.906 481.003H670.826C670.741 481.569 670.453 482.038 669.962 482.411C669.471 482.785 668.805 482.971 667.962 482.971C667.322 482.971 666.725 482.849 666.17 482.603C665.615 482.358 665.13 481.995 664.714 481.515C664.298 481.035 663.973 480.438 663.738 479.723C663.503 479.009 663.386 478.182 663.386 477.243C663.386 476.305 663.509 475.473 663.754 474.747C663.999 474.022 664.341 473.414 664.778 472.923C665.226 472.433 665.759 472.059 666.378 471.803C666.997 471.547 667.685 471.419 668.442 471.419C669.445 471.419 670.309 471.638 671.034 472.075C671.759 472.502 672.33 473.147 672.746 474.011L670.762 475.147C670.591 474.71 670.325 474.342 669.962 474.043C669.599 473.734 669.093 473.579 668.442 473.579C667.685 473.579 667.082 473.798 666.634 474.235C666.186 474.673 665.962 475.361 665.962 476.299V478.091C665.962 479.019 666.186 479.707 666.634 480.155C667.082 480.593 667.685 480.811 668.442 480.811C668.741 480.811 669.023 480.779 669.29 480.715C669.557 480.641 669.791 480.534 669.994 480.395C670.197 480.246 670.351 480.07 670.458 479.867C670.575 479.665 670.634 479.425 670.634 479.147V478.587H668.554V476.555H672.954V482.779H670.906V481.003ZM678.694 482.971C678.054 482.971 677.483 482.87 676.982 482.667C676.481 482.454 676.054 482.161 675.702 481.787C675.361 481.403 675.099 480.939 674.918 480.395C674.747 479.851 674.662 479.243 674.662 478.571C674.662 477.91 674.747 477.313 674.918 476.779C675.089 476.235 675.339 475.771 675.67 475.387C676.011 475.003 676.427 474.71 676.918 474.507C677.409 474.294 677.969 474.187 678.598 474.187C679.291 474.187 679.883 474.305 680.374 474.539C680.875 474.774 681.281 475.089 681.59 475.483C681.91 475.878 682.139 476.337 682.278 476.859C682.427 477.371 682.502 477.91 682.502 478.475V479.179H677.11V479.307C677.11 479.862 677.259 480.305 677.558 480.635C677.857 480.955 678.326 481.115 678.966 481.115C679.457 481.115 679.857 481.019 680.166 480.827C680.475 480.625 680.763 480.385 681.03 480.107L682.214 481.579C681.841 482.017 681.35 482.358 680.742 482.603C680.145 482.849 679.462 482.971 678.694 482.971ZM678.646 475.931C678.166 475.931 677.787 476.091 677.51 476.411C677.243 476.721 677.11 477.137 677.11 477.659V477.787H680.054V477.643C680.054 477.131 679.937 476.721 679.702 476.411C679.478 476.091 679.126 475.931 678.646 475.931ZM684.174 482.779V474.379H686.542V475.803H686.638C686.788 475.366 687.049 474.987 687.422 474.667C687.796 474.347 688.313 474.187 688.974 474.187C689.838 474.187 690.489 474.475 690.926 475.051C691.374 475.627 691.598 476.449 691.598 477.515V482.779H689.23V477.707C689.23 477.163 689.145 476.763 688.974 476.507C688.804 476.241 688.5 476.107 688.062 476.107C687.87 476.107 687.684 476.134 687.502 476.187C687.321 476.23 687.156 476.305 687.006 476.411C686.868 476.518 686.756 476.651 686.67 476.811C686.585 476.961 686.542 477.137 686.542 477.339V482.779H684.174ZM697.21 482.971C696.57 482.971 695.999 482.87 695.498 482.667C694.996 482.454 694.57 482.161 694.218 481.787C693.876 481.403 693.615 480.939 693.434 480.395C693.263 479.851 693.178 479.243 693.178 478.571C693.178 477.91 693.263 477.313 693.434 476.779C693.604 476.235 693.855 475.771 694.186 475.387C694.527 475.003 694.943 474.71 695.434 474.507C695.924 474.294 696.484 474.187 697.114 474.187C697.807 474.187 698.399 474.305 698.89 474.539C699.391 474.774 699.796 475.089 700.106 475.483C700.426 475.878 700.655 476.337 700.794 476.859C700.943 477.371 701.018 477.91 701.018 478.475V479.179H695.626V479.307C695.626 479.862 695.775 480.305 696.074 480.635C696.372 480.955 696.842 481.115 697.482 481.115C697.972 481.115 698.372 481.019 698.682 480.827C698.991 480.625 699.279 480.385 699.546 480.107L700.73 481.579C700.356 482.017 699.866 482.358 699.258 482.603C698.66 482.849 697.978 482.971 697.21 482.971ZM697.162 475.931C696.682 475.931 696.303 476.091 696.026 476.411C695.759 476.721 695.626 477.137 695.626 477.659V477.787H698.57V477.643C698.57 477.131 698.452 476.721 698.218 476.411C697.994 476.091 697.642 475.931 697.162 475.931ZM702.69 482.779V474.379H705.058V476.203H705.138C705.181 475.969 705.255 475.745 705.362 475.531C705.469 475.307 705.607 475.11 705.778 474.939C705.959 474.769 706.173 474.635 706.418 474.539C706.663 474.433 706.951 474.379 707.282 474.379H707.698V476.587H707.106C706.413 476.587 705.895 476.678 705.554 476.859C705.223 477.041 705.058 477.377 705.058 477.867V482.779H702.69ZM715.148 482.779C714.721 482.779 714.364 482.646 714.076 482.379C713.799 482.113 713.623 481.755 713.548 481.307H713.452C713.324 481.851 713.041 482.267 712.604 482.555C712.167 482.833 711.628 482.971 710.988 482.971C710.145 482.971 709.5 482.747 709.052 482.299C708.604 481.851 708.38 481.259 708.38 480.523C708.38 479.638 708.7 478.982 709.34 478.555C709.991 478.118 710.871 477.899 711.98 477.899H713.308V477.371C713.308 476.966 713.201 476.646 712.988 476.411C712.775 476.166 712.417 476.043 711.916 476.043C711.447 476.043 711.073 476.145 710.796 476.347C710.519 476.55 710.289 476.779 710.108 477.035L708.7 475.787C709.041 475.286 709.468 474.897 709.98 474.619C710.503 474.331 711.207 474.187 712.092 474.187C713.287 474.187 714.183 474.449 714.78 474.971C715.377 475.494 715.676 476.257 715.676 477.259V480.939H716.46V482.779H715.148ZM711.868 481.323C712.263 481.323 712.599 481.238 712.876 481.067C713.164 480.897 713.308 480.619 713.308 480.235V479.243H712.156C711.228 479.243 710.764 479.558 710.764 480.187V480.427C710.764 480.737 710.86 480.966 711.052 481.115C711.244 481.254 711.516 481.323 711.868 481.323ZM720.9 482.779C720.078 482.779 719.454 482.571 719.028 482.155C718.612 481.739 718.404 481.131 718.404 480.331V476.219H717.22V474.379H717.812C718.132 474.379 718.35 474.305 718.468 474.155C718.585 473.995 718.644 473.771 718.644 473.483V472.107H720.772V474.379H722.436V476.219H720.772V480.939H722.308V482.779H720.9ZM727.426 482.971C726.807 482.971 726.253 482.87 725.762 482.667C725.282 482.465 724.871 482.171 724.53 481.787C724.199 481.403 723.943 480.939 723.762 480.395C723.581 479.851 723.49 479.243 723.49 478.571C723.49 477.899 723.581 477.291 723.762 476.747C723.943 476.203 724.199 475.745 724.53 475.371C724.871 474.987 725.282 474.694 725.762 474.491C726.253 474.289 726.807 474.187 727.426 474.187C728.045 474.187 728.594 474.289 729.074 474.491C729.565 474.694 729.975 474.987 730.306 475.371C730.647 475.745 730.909 476.203 731.09 476.747C731.271 477.291 731.362 477.899 731.362 478.571C731.362 479.243 731.271 479.851 731.09 480.395C730.909 480.939 730.647 481.403 730.306 481.787C729.975 482.171 729.565 482.465 729.074 482.667C728.594 482.87 728.045 482.971 727.426 482.971ZM727.426 481.099C727.895 481.099 728.258 480.955 728.514 480.667C728.77 480.379 728.898 479.969 728.898 479.435V477.723C728.898 477.19 728.77 476.779 728.514 476.491C728.258 476.203 727.895 476.059 727.426 476.059C726.957 476.059 726.594 476.203 726.338 476.491C726.082 476.779 725.954 477.19 725.954 477.723V479.435C725.954 479.969 726.082 480.379 726.338 480.667C726.594 480.955 726.957 481.099 727.426 481.099ZM733.049 482.779V474.379H735.417V476.203H735.497C735.54 475.969 735.615 475.745 735.721 475.531C735.828 475.307 735.967 475.11 736.137 474.939C736.319 474.769 736.532 474.635 736.777 474.539C737.023 474.433 737.311 474.379 737.641 474.379H738.057V476.587H737.465C736.772 476.587 736.255 476.678 735.913 476.859C735.583 477.041 735.417 477.377 735.417 477.867V482.779H733.049Z"
      fill="#70788A"
    />
    <path
      d="M135.017 253.442L140.79 243.442H129.243L135.017 253.442ZM890.254 253.442L896.027 243.442H884.48L890.254 253.442ZM136.017 247.281V241.12H134.017V247.281H136.017ZM136.017 238.04V231.879H134.017V238.04H136.017ZM136.017 228.798V222.637H134.017V228.798H136.017ZM136.017 219.557V213.396H134.017V219.557H136.017ZM136.017 210.315V204.154H134.017V210.315H136.017ZM136.017 201.074V194.913H134.017V201.074H136.017ZM136.017 191.832V185.671H134.017V191.832H136.017ZM136.017 182.591V176.43H134.017V182.591H136.017ZM136.017 173.349V167.188H134.017V173.349H136.017ZM136.017 164.108V161.027H134.017V164.108H136.017ZM136.017 161.027C136.017 159.991 136.043 158.961 136.096 157.938L134.099 157.835C134.044 158.892 134.017 159.956 134.017 161.027H136.017ZM136.335 154.857C136.55 152.789 136.872 150.753 137.294 148.755L135.338 148.341C134.901 150.407 134.568 152.512 134.346 154.65L136.335 154.857ZM138.013 145.75C138.548 143.749 139.186 141.789 139.921 139.877L138.054 139.159C137.294 141.137 136.634 143.164 136.081 145.234L138.013 145.75ZM141.104 137.023C141.946 135.136 142.884 133.3 143.912 131.523L142.181 130.521C141.118 132.359 140.148 134.257 139.277 136.209L141.104 137.023ZM145.528 128.891C146.654 127.161 147.867 125.495 149.163 123.897L147.609 122.637C146.27 124.289 145.015 126.012 143.852 127.8L145.528 128.891ZM151.17 121.548C152.549 120.018 154.007 118.56 155.538 117.181L154.199 115.695C152.617 117.12 151.11 118.627 149.684 120.21L151.17 121.548ZM157.886 115.173C159.484 113.878 161.151 112.664 162.88 111.539L161.789 109.862C160.002 111.026 158.278 112.28 156.627 113.62L157.886 115.173ZM165.513 109.922C167.29 108.894 169.125 107.956 171.013 107.114L170.198 105.288C168.246 106.158 166.348 107.128 164.511 108.191L165.513 109.922ZM173.866 105.931C175.778 105.197 177.738 104.559 179.74 104.024L179.224 102.091C177.153 102.645 175.126 103.304 173.149 104.064L173.866 105.931ZM182.744 103.305C184.743 102.882 186.779 102.561 188.846 102.346L188.64 100.356C186.502 100.578 184.397 100.911 182.33 101.348L182.744 103.305ZM191.927 102.106C192.95 102.054 193.98 102.027 195.017 102.027V100.027C193.946 100.027 192.882 100.055 191.824 100.109L191.927 102.106ZM195.017 102.027H197.999V100.027H195.017V102.027ZM200.981 102.027H206.946V100.027H200.981V102.027ZM209.928 102.027H215.893V100.027H209.928V102.027ZM218.875 102.027H224.84V100.027H218.875V102.027ZM227.822 102.027H233.787V100.027H227.822V102.027ZM236.769 102.027H242.734V100.027H236.769V102.027ZM245.716 102.027H251.681V100.027H245.716V102.027ZM254.663 102.027H260.628V100.027H254.663V102.027ZM263.61 102.027H269.575V100.027H263.61V102.027ZM272.557 102.027H278.522V100.027H272.557V102.027ZM281.504 102.027H287.469V100.027H281.504V102.027ZM290.451 102.027H296.416V100.027H290.451V102.027ZM299.398 102.027H305.363V100.027H299.398V102.027ZM308.345 102.027H314.31V100.027H308.345V102.027ZM317.292 102.027H323.257V100.027H317.292V102.027ZM326.239 102.027H332.204V100.027H326.239V102.027ZM335.186 102.027H341.151V100.027H335.186V102.027ZM344.133 102.027H350.098V100.027H344.133V102.027ZM353.08 102.027H359.045V100.027H353.08V102.027ZM362.027 102.027H367.992V100.027H362.027V102.027ZM370.974 102.027H376.939V100.027H370.974V102.027ZM379.921 102.027H385.886V100.027H379.921V102.027ZM388.868 102.027H394.833V100.027H388.868V102.027ZM397.815 102.027H403.78V100.027H397.815V102.027ZM406.762 102.027H412.727V100.027H406.762V102.027ZM415.709 102.027H421.674V100.027H415.709V102.027ZM424.656 102.027H430.621V100.027H424.656V102.027ZM433.603 102.027H439.568V100.027H433.603V102.027ZM442.55 102.027H448.515V100.027H442.55V102.027ZM451.497 102.027H457.462V100.027H451.497V102.027ZM460.444 102.027H466.409V100.027H460.444V102.027ZM469.391 102.027H475.356V100.027H469.391V102.027ZM478.338 102.027H484.303V100.027H478.338V102.027ZM487.285 102.027H493.25V100.027H487.285V102.027ZM496.232 102.027H502.197V100.027H496.232V102.027ZM505.179 102.027H511.144V100.027H505.179V102.027ZM514.126 102.027H520.091V100.027H514.126V102.027ZM523.073 102.027H529.038V100.027H523.073V102.027ZM532.02 102.027H537.985V100.027H532.02V102.027ZM540.967 102.027H546.932V100.027H540.967V102.027ZM549.914 102.027H555.879V100.027H549.914V102.027ZM558.861 102.027H564.826V100.027H558.861V102.027ZM567.808 102.027H573.773V100.027H567.808V102.027ZM576.755 102.027H582.72V100.027H576.755V102.027ZM585.702 102.027H591.667V100.027H585.702V102.027ZM594.649 102.027H600.614V100.027H594.649V102.027ZM603.596 102.027H609.561V100.027H603.596V102.027ZM612.543 102.027H618.508V100.027H612.543V102.027ZM621.49 102.027H627.455V100.027H621.49V102.027ZM630.437 102.027H636.402V100.027H630.437V102.027ZM639.384 102.027H645.349V100.027H639.384V102.027ZM648.331 102.027H654.296V100.027H648.331V102.027ZM657.278 102.027H663.243V100.027H657.278V102.027ZM666.225 102.027H672.19V100.027H666.225V102.027ZM675.172 102.027H681.137V100.027H675.172V102.027ZM684.119 102.027H690.084V100.027H684.119V102.027ZM693.066 102.027H699.031V100.027H693.066V102.027ZM702.013 102.027H707.978V100.027H702.013V102.027ZM710.96 102.027H716.925V100.027H710.96V102.027ZM719.907 102.027H725.872V100.027H719.907V102.027ZM728.854 102.027H734.819V100.027H728.854V102.027ZM737.801 102.027H743.766V100.027H737.801V102.027ZM746.748 102.027H752.713V100.027H746.748V102.027ZM755.695 102.027H761.66V100.027H755.695V102.027ZM764.642 102.027H770.607V100.027H764.642V102.027ZM773.589 102.027H779.554V100.027H773.589V102.027ZM782.536 102.027H788.501V100.027H782.536V102.027ZM791.483 102.027H797.448V100.027H791.483V102.027ZM800.43 102.027H806.395V100.027H800.43V102.027ZM809.377 102.027H815.342V100.027H809.377V102.027ZM818.324 102.027H824.289V100.027H818.324V102.027ZM827.271 102.027H830.254V100.027H827.271V102.027ZM830.254 102.027C831.29 102.027 832.32 102.054 833.343 102.106L833.446 100.109C832.389 100.055 831.324 100.027 830.254 100.027V102.027ZM836.424 102.346C838.492 102.561 840.527 102.882 842.526 103.305L842.94 101.348C840.873 100.911 838.768 100.578 836.63 100.356L836.424 102.346ZM845.53 104.024C847.532 104.559 849.492 105.196 851.404 105.931L852.121 104.064C850.144 103.304 848.117 102.645 846.047 102.091L845.53 104.024ZM854.257 107.114C856.145 107.956 857.981 108.894 859.758 109.922L860.759 108.191C858.922 107.128 857.024 106.158 855.072 105.288L854.257 107.114ZM862.39 111.539C864.119 112.664 865.786 113.878 867.384 115.173L868.643 113.62C866.992 112.28 865.269 111.026 863.481 109.862L862.39 111.539ZM869.732 117.181C871.263 118.56 872.721 120.018 874.1 121.548L875.586 120.21C874.16 118.627 872.653 117.12 871.071 115.695L869.732 117.181ZM876.108 123.897C877.403 125.494 878.617 127.161 879.742 128.891L881.418 127.8C880.255 126.012 879 124.289 877.661 122.637L876.108 123.897ZM881.358 131.523C882.387 133.3 883.325 135.136 884.166 137.023L885.993 136.209C885.123 134.257 884.153 132.359 883.09 130.521L881.358 131.523ZM885.35 139.877C886.084 141.789 886.722 143.749 887.257 145.75L889.189 145.234C888.636 143.164 887.976 141.137 887.217 139.159L885.35 139.877ZM887.976 148.755C888.399 150.753 888.72 152.789 888.935 154.857L890.924 154.65C890.702 152.512 890.37 150.407 889.932 148.341L887.976 148.755ZM889.174 157.938C889.227 158.961 889.254 159.991 889.254 161.027H891.254C891.254 159.956 891.226 158.892 891.172 157.835L889.174 157.938ZM889.254 161.027V164.107H891.254V161.027H889.254ZM889.254 167.188V173.349H891.254V167.188H889.254ZM889.254 176.43V182.591H891.254V176.43H889.254ZM889.254 185.671V191.832H891.254V185.671H889.254ZM889.254 194.913V201.074H891.254V194.913H889.254ZM889.254 204.154V210.315H891.254V204.154H889.254ZM889.254 213.396V219.557H891.254V213.396H889.254ZM889.254 222.637V228.798H891.254V222.637H889.254ZM889.254 231.879V238.04H891.254V231.879H889.254ZM889.254 241.12V247.281H891.254V241.12H889.254Z"
      fill="#1886FF"
    />
    <path
      d="M293.734 301.417L291.206 290.249H293.606L294.662 295.609L295.254 298.713H295.302L296.006 295.609L297.238 290.249H299.894L301.142 295.609L301.83 298.713H301.878L302.47 295.609L303.542 290.249H305.846L303.254 301.417H300.486L299.078 295.369L298.534 292.921H298.486L297.926 295.369L296.518 301.417H293.734ZM308.592 292.121C308.112 292.121 307.76 292.015 307.536 291.801C307.323 291.577 307.216 291.295 307.216 290.953V290.601C307.216 290.26 307.323 289.983 307.536 289.769C307.76 289.545 308.112 289.433 308.592 289.433C309.072 289.433 309.419 289.545 309.632 289.769C309.856 289.983 309.968 290.26 309.968 290.601V290.953C309.968 291.295 309.856 291.577 309.632 291.801C309.419 292.015 309.072 292.121 308.592 292.121ZM307.408 293.017H309.776V301.417H307.408V293.017ZM314.93 301.417C314.109 301.417 313.485 301.209 313.058 300.793C312.642 300.377 312.434 299.769 312.434 298.969V294.857H311.25V293.017H311.842C312.162 293.017 312.381 292.943 312.498 292.793C312.616 292.633 312.674 292.409 312.674 292.121V290.745H314.802V293.017H316.466V294.857H314.802V299.577H316.338V301.417H314.93ZM318.111 289.577H320.479V294.441H320.575C320.725 294.004 320.986 293.625 321.359 293.305C321.733 292.985 322.25 292.825 322.911 292.825C323.775 292.825 324.426 293.113 324.863 293.689C325.311 294.265 325.535 295.087 325.535 296.153V301.417H323.167V296.345C323.167 295.801 323.082 295.401 322.911 295.145C322.741 294.879 322.437 294.745 321.999 294.745C321.807 294.745 321.621 294.772 321.439 294.825C321.258 294.868 321.093 294.943 320.943 295.049C320.805 295.156 320.693 295.289 320.607 295.449C320.522 295.599 320.479 295.775 320.479 295.977V301.417H318.111V289.577ZM331.051 301.609C330.432 301.609 329.877 301.508 329.387 301.305C328.907 301.103 328.496 300.809 328.155 300.425C327.824 300.041 327.568 299.577 327.387 299.033C327.205 298.489 327.115 297.881 327.115 297.209C327.115 296.537 327.205 295.929 327.387 295.385C327.568 294.841 327.824 294.383 328.155 294.009C328.496 293.625 328.907 293.332 329.387 293.129C329.877 292.927 330.432 292.825 331.051 292.825C331.669 292.825 332.219 292.927 332.699 293.129C333.189 293.332 333.6 293.625 333.931 294.009C334.272 294.383 334.533 294.841 334.715 295.385C334.896 295.929 334.987 296.537 334.987 297.209C334.987 297.881 334.896 298.489 334.715 299.033C334.533 299.577 334.272 300.041 333.931 300.425C333.6 300.809 333.189 301.103 332.699 301.305C332.219 301.508 331.669 301.609 331.051 301.609ZM331.051 299.737C331.52 299.737 331.883 299.593 332.139 299.305C332.395 299.017 332.523 298.607 332.523 298.073V296.361C332.523 295.828 332.395 295.417 332.139 295.129C331.883 294.841 331.52 294.697 331.051 294.697C330.581 294.697 330.219 294.841 329.963 295.129C329.707 295.417 329.579 295.828 329.579 296.361V298.073C329.579 298.607 329.707 299.017 329.963 299.305C330.219 299.593 330.581 299.737 331.051 299.737ZM341.634 300.009H341.554C341.479 300.223 341.378 300.425 341.25 300.617C341.133 300.809 340.978 300.98 340.786 301.129C340.594 301.279 340.365 301.396 340.098 301.481C339.842 301.567 339.543 301.609 339.202 301.609C338.338 301.609 337.682 301.327 337.234 300.761C336.797 300.185 336.578 299.364 336.578 298.297V293.017H338.946V298.089C338.946 298.601 339.037 298.996 339.218 299.273C339.399 299.551 339.709 299.689 340.146 299.689C340.327 299.689 340.509 299.663 340.69 299.609C340.871 299.556 341.031 299.481 341.17 299.385C341.309 299.279 341.421 299.151 341.506 299.001C341.591 298.852 341.634 298.676 341.634 298.473V293.017H344.002V301.417H341.634V300.009ZM349.149 301.417C348.328 301.417 347.704 301.209 347.277 300.793C346.861 300.377 346.653 299.769 346.653 298.969V294.857H345.469V293.017H346.061C346.381 293.017 346.6 292.943 346.717 292.793C346.835 292.633 346.893 292.409 346.893 292.121V290.745H349.021V293.017H350.685V294.857H349.021V299.577H350.557V301.417H349.149ZM356.527 294.857H355.343V293.017H356.527V292.025C356.527 291.215 356.741 290.607 357.167 290.201C357.594 289.785 358.218 289.577 359.039 289.577H360.575V291.417H358.895V293.017H360.575V294.857H358.895V301.417H356.527V294.857ZM365.334 301.609C364.694 301.609 364.124 301.508 363.622 301.305C363.121 301.092 362.694 300.799 362.342 300.425C362.001 300.041 361.74 299.577 361.558 299.033C361.388 298.489 361.302 297.881 361.302 297.209C361.302 296.548 361.388 295.951 361.558 295.417C361.729 294.873 361.98 294.409 362.31 294.025C362.652 293.641 363.068 293.348 363.558 293.145C364.049 292.932 364.609 292.825 365.238 292.825C365.932 292.825 366.524 292.943 367.014 293.177C367.516 293.412 367.921 293.727 368.23 294.121C368.55 294.516 368.78 294.975 368.918 295.497C369.068 296.009 369.142 296.548 369.142 297.113V297.817H363.75V297.945C363.75 298.5 363.9 298.943 364.198 299.273C364.497 299.593 364.966 299.753 365.606 299.753C366.097 299.753 366.497 299.657 366.806 299.465C367.116 299.263 367.404 299.023 367.67 298.745L368.854 300.217C368.481 300.655 367.99 300.996 367.382 301.241C366.785 301.487 366.102 301.609 365.334 301.609ZM365.286 294.569C364.806 294.569 364.428 294.729 364.15 295.049C363.884 295.359 363.75 295.775 363.75 296.297V296.425H366.694V296.281C366.694 295.769 366.577 295.359 366.342 295.049C366.118 294.729 365.766 294.569 365.286 294.569ZM374.552 292.409V301.417H372.12V292.409H369.096V290.249H377.576V292.409H374.552ZM382.668 301.609C381.687 301.609 380.855 301.444 380.172 301.113C379.489 300.772 378.908 300.335 378.428 299.801L380.028 298.185C380.785 299.039 381.719 299.465 382.828 299.465C383.425 299.465 383.868 299.343 384.156 299.097C384.444 298.852 384.588 298.527 384.588 298.121C384.588 297.812 384.503 297.556 384.332 297.353C384.161 297.14 383.815 296.996 383.292 296.921L382.188 296.777C381.004 296.628 380.135 296.271 379.58 295.705C379.036 295.14 378.764 294.388 378.764 293.449C378.764 292.948 378.86 292.489 379.052 292.073C379.244 291.657 379.516 291.3 379.868 291.001C380.231 290.703 380.668 290.473 381.18 290.313C381.703 290.143 382.295 290.057 382.956 290.057C383.799 290.057 384.54 290.191 385.18 290.457C385.82 290.724 386.369 291.113 386.828 291.625L385.212 293.257C384.945 292.948 384.62 292.697 384.236 292.505C383.863 292.303 383.388 292.201 382.812 292.201C382.268 292.201 381.863 292.297 381.596 292.489C381.329 292.681 381.196 292.948 381.196 293.289C381.196 293.673 381.297 293.951 381.5 294.121C381.713 294.292 382.055 294.415 382.524 294.489L383.628 294.665C384.78 294.847 385.633 295.204 386.188 295.737C386.743 296.26 387.02 297.007 387.02 297.977C387.02 298.511 386.924 299.001 386.732 299.449C386.54 299.897 386.257 300.281 385.884 300.601C385.521 300.921 385.068 301.172 384.524 301.353C383.98 301.524 383.361 301.609 382.668 301.609Z"
      fill="#70788A"
    />
    <path
      d="M556.558 453.784C555.94 453.784 555.385 453.682 554.894 453.48C554.414 453.277 554.004 452.984 553.662 452.6C553.332 452.216 553.076 451.752 552.894 451.208C552.713 450.664 552.622 450.056 552.622 449.384C552.622 448.712 552.713 448.104 552.894 447.56C553.076 447.016 553.332 446.557 553.662 446.184C554.004 445.8 554.414 445.506 554.894 445.304C555.385 445.101 555.94 445 556.558 445C557.177 445 557.726 445.101 558.206 445.304C558.697 445.506 559.108 445.8 559.438 446.184C559.78 446.557 560.041 447.016 560.222 447.56C560.404 448.104 560.494 448.712 560.494 449.384C560.494 450.056 560.404 450.664 560.222 451.208C560.041 451.752 559.78 452.216 559.438 452.6C559.108 452.984 558.697 453.277 558.206 453.48C557.726 453.682 557.177 453.784 556.558 453.784ZM556.558 451.912C557.028 451.912 557.39 451.768 557.646 451.48C557.902 451.192 558.03 450.781 558.03 450.248V448.536C558.03 448.002 557.902 447.592 557.646 447.304C557.39 447.016 557.028 446.872 556.558 446.872C556.089 446.872 555.726 447.016 555.47 447.304C555.214 447.592 555.086 448.002 555.086 448.536V450.248C555.086 450.781 555.214 451.192 555.47 451.48C555.726 451.768 556.089 451.912 556.558 451.912ZM567.142 452.184H567.062C566.987 452.397 566.886 452.6 566.758 452.792C566.64 452.984 566.486 453.154 566.294 453.304C566.102 453.453 565.872 453.57 565.606 453.656C565.35 453.741 565.051 453.784 564.71 453.784C563.846 453.784 563.19 453.501 562.742 452.936C562.304 452.36 562.086 451.538 562.086 450.472V445.192H564.454V450.264C564.454 450.776 564.544 451.17 564.726 451.448C564.907 451.725 565.216 451.864 565.654 451.864C565.835 451.864 566.016 451.837 566.198 451.784C566.379 451.73 566.539 451.656 566.678 451.56C566.816 451.453 566.928 451.325 567.014 451.176C567.099 451.026 567.142 450.85 567.142 450.648V445.192H569.51V453.592H567.142V452.184ZM574.657 453.592C573.836 453.592 573.212 453.384 572.785 452.968C572.369 452.552 572.161 451.944 572.161 451.144V447.032H570.977V445.192H571.569C571.889 445.192 572.108 445.117 572.225 444.968C572.342 444.808 572.401 444.584 572.401 444.296V442.92H574.529V445.192H576.193V447.032H574.529V451.752H576.065V453.592H574.657ZM577.838 445.192H580.206V446.6H580.286C580.403 446.13 580.67 445.746 581.086 445.448C581.513 445.149 581.998 445 582.542 445C583.609 445 584.414 445.373 584.958 446.12C585.502 446.866 585.774 447.954 585.774 449.384C585.774 450.813 585.502 451.906 584.958 452.664C584.414 453.41 583.609 453.784 582.542 453.784C582.265 453.784 582.003 453.741 581.758 453.656C581.513 453.581 581.289 453.474 581.086 453.336C580.894 453.186 580.729 453.016 580.59 452.824C580.451 452.621 580.35 452.408 580.286 452.184H580.206V456.792H577.838V445.192ZM581.758 451.864C582.206 451.864 582.574 451.709 582.862 451.4C583.161 451.08 583.31 450.653 583.31 450.12V448.664C583.31 448.13 583.161 447.709 582.862 447.4C582.574 447.08 582.206 446.92 581.758 446.92C581.31 446.92 580.937 447.032 580.638 447.256C580.35 447.469 580.206 447.768 580.206 448.152V450.632C580.206 451.016 580.35 451.32 580.638 451.544C580.937 451.757 581.31 451.864 581.758 451.864ZM592.532 452.184H592.452C592.378 452.397 592.276 452.6 592.148 452.792C592.031 452.984 591.876 453.154 591.684 453.304C591.492 453.453 591.263 453.57 590.996 453.656C590.74 453.741 590.442 453.784 590.1 453.784C589.236 453.784 588.58 453.501 588.132 452.936C587.695 452.36 587.476 451.538 587.476 450.472V445.192H589.844V450.264C589.844 450.776 589.935 451.17 590.116 451.448C590.298 451.725 590.607 451.864 591.044 451.864C591.226 451.864 591.407 451.837 591.588 451.784C591.77 451.73 591.93 451.656 592.068 451.56C592.207 451.453 592.319 451.325 592.404 451.176C592.49 451.026 592.532 450.85 592.532 450.648V445.192H594.9V453.592H592.532V452.184ZM600.048 453.592C599.226 453.592 598.602 453.384 598.176 452.968C597.76 452.552 597.552 451.944 597.552 451.144V447.032H596.368V445.192H596.96C597.28 445.192 597.498 445.117 597.616 444.968C597.733 444.808 597.792 444.584 597.792 444.296V442.92H599.92V445.192H601.584V447.032H599.92V451.752H601.456V453.592H600.048Z"
      fill="#70788A"
    />
    <path
      d="M809.431 444.296C808.951 444.296 808.599 444.189 808.375 443.976C808.162 443.752 808.055 443.469 808.055 443.128V442.776C808.055 442.434 808.162 442.157 808.375 441.944C808.599 441.72 808.951 441.608 809.431 441.608C809.911 441.608 810.258 441.72 810.471 441.944C810.695 442.157 810.807 442.434 810.807 442.776V443.128C810.807 443.469 810.695 443.752 810.471 443.976C810.258 444.189 809.911 444.296 809.431 444.296ZM808.247 445.192H810.615V453.592H808.247V445.192ZM812.825 453.592V445.192H815.193V446.616H815.289C815.438 446.178 815.7 445.8 816.073 445.48C816.446 445.16 816.964 445 817.625 445C818.489 445 819.14 445.288 819.577 445.864C820.025 446.44 820.249 447.261 820.249 448.328V453.592H817.881V448.52C817.881 447.976 817.796 447.576 817.625 447.32C817.454 447.053 817.15 446.92 816.713 446.92C816.521 446.92 816.334 446.946 816.153 447C815.972 447.042 815.806 447.117 815.657 447.224C815.518 447.33 815.406 447.464 815.321 447.624C815.236 447.773 815.193 447.949 815.193 448.152V453.592H812.825ZM822.356 445.192H824.724V446.6H824.804C824.922 446.13 825.188 445.746 825.604 445.448C826.031 445.149 826.516 445 827.06 445C828.127 445 828.932 445.373 829.476 446.12C830.02 446.866 830.292 447.954 830.292 449.384C830.292 450.813 830.02 451.906 829.476 452.664C828.932 453.41 828.127 453.784 827.06 453.784C826.783 453.784 826.522 453.741 826.276 453.656C826.031 453.581 825.807 453.474 825.604 453.336C825.412 453.186 825.247 453.016 825.108 452.824C824.97 452.621 824.868 452.408 824.804 452.184H824.724V456.792H822.356V445.192ZM826.276 451.864C826.724 451.864 827.092 451.709 827.38 451.4C827.679 451.08 827.828 450.653 827.828 450.12V448.664C827.828 448.13 827.679 447.709 827.38 447.4C827.092 447.08 826.724 446.92 826.276 446.92C825.828 446.92 825.455 447.032 825.156 447.256C824.868 447.469 824.724 447.768 824.724 448.152V450.632C824.724 451.016 824.868 451.32 825.156 451.544C825.455 451.757 825.828 451.864 826.276 451.864ZM837.051 452.184H836.971C836.896 452.397 836.795 452.6 836.667 452.792C836.549 452.984 836.395 453.154 836.203 453.304C836.011 453.453 835.781 453.57 835.515 453.656C835.259 453.741 834.96 453.784 834.619 453.784C833.755 453.784 833.099 453.501 832.651 452.936C832.213 452.36 831.995 451.538 831.995 450.472V445.192H834.363V450.264C834.363 450.776 834.453 451.17 834.635 451.448C834.816 451.725 835.125 451.864 835.563 451.864C835.744 451.864 835.925 451.837 836.107 451.784C836.288 451.73 836.448 451.656 836.587 451.56C836.725 451.453 836.837 451.325 836.923 451.176C837.008 451.026 837.051 450.85 837.051 450.648V445.192H839.419V453.592H837.051V452.184ZM844.566 453.592C843.745 453.592 843.121 453.384 842.694 452.968C842.278 452.552 842.07 451.944 842.07 451.144V447.032H840.886V445.192H841.478C841.798 445.192 842.017 445.117 842.134 444.968C842.251 444.808 842.31 444.584 842.31 444.296V442.92H844.438V445.192H846.102V447.032H844.438V451.752H845.974V453.592H844.566Z"
      fill="#70788A"
    />
    <path
      d="M445.679 314.605L435.679 308.831L435.679 320.378L445.679 314.605ZM232.868 315.605L235.824 315.605L235.824 313.605L232.868 313.605L232.868 315.605ZM238.78 315.605L244.691 315.605L244.691 313.605L238.78 313.605L238.78 315.605ZM247.647 315.605L253.558 315.605L253.558 313.605L247.647 313.605L247.647 315.605ZM256.514 315.605L262.425 315.605L262.425 313.605L256.514 313.605L256.514 315.605ZM265.381 315.605L271.292 315.605L271.292 313.605L265.381 313.605L265.381 315.605ZM274.248 315.605L280.159 315.605L280.159 313.605L274.248 313.605L274.248 315.605ZM283.115 315.605L289.027 315.605L289.027 313.605L283.115 313.605L283.115 315.605ZM291.982 315.605L297.894 315.605L297.894 313.605L291.982 313.605L291.982 315.605ZM300.849 315.605L306.761 315.605L306.761 313.605L300.849 313.605L300.849 315.605ZM309.717 315.605L315.628 315.605L315.628 313.605L309.717 313.605L309.717 315.605ZM318.584 315.605L324.495 315.605L324.495 313.605L318.584 313.605L318.584 315.605ZM327.451 315.605L333.362 315.605L333.362 313.605L327.451 313.605L327.451 315.605ZM336.318 315.605L342.229 315.605L342.229 313.605L336.318 313.605L336.318 315.605ZM345.185 315.605L351.096 315.605L351.096 313.605L345.185 313.605L345.185 315.605ZM354.052 315.605L359.963 315.605L359.963 313.605L354.052 313.605L354.052 315.605ZM362.919 315.605L368.831 315.605L368.831 313.605L362.919 313.605L362.919 315.605ZM371.786 315.605L377.698 315.605L377.698 313.605L371.786 313.605L371.786 315.605ZM380.653 315.605L386.565 315.605L386.565 313.605L380.653 313.605L380.653 315.605ZM389.521 315.605L395.432 315.605L395.432 313.605L389.521 313.605L389.521 315.605ZM398.388 315.605L404.299 315.605L404.299 313.605L398.388 313.605L398.388 315.605ZM407.255 315.605L413.166 315.605L413.166 313.605L407.255 313.605L407.255 315.605ZM416.122 315.605L422.033 315.605L422.033 313.605L416.122 313.605L416.122 315.605ZM424.989 315.605L430.9 315.605L430.9 313.605L424.989 313.605L424.989 315.605ZM433.856 315.605L439.767 315.605L439.767 313.605L433.856 313.605L433.856 315.605Z"
      fill="#70788A"
    />
    <g filter="url(#filter0_d_112_125)">
      <path
        d="M42.2671 265.442C42.2671 258.815 47.6397 253.442 54.2671 253.442H220.868C227.496 253.442 232.868 258.815 232.868 265.442V359.634H42.2671V265.442Z"
        fill="#D0D3DA"
      />
      <path
        d="M49.9731 268.029C49.9731 264.715 52.6594 262.029 55.9731 262.029H219.162C222.475 262.029 225.162 264.715 225.162 268.029V359.634H49.9731V268.029Z"
        fill="#1C212C"
      />
      <path
        d="M73.9248 295.902V287.646H75.8288V288.862H75.9408C76.0688 288.478 76.2502 288.147 76.4848 287.87C76.7302 287.593 77.0715 287.454 77.5088 287.454C78.3088 287.454 78.7995 287.923 78.9808 288.862H79.0768C79.1408 288.67 79.2208 288.489 79.3168 288.318C79.4128 288.147 79.5302 287.998 79.6688 287.87C79.8075 287.742 79.9728 287.641 80.1648 287.566C80.3568 287.491 80.5808 287.454 80.8368 287.454C81.9888 287.454 82.5648 288.302 82.5648 289.998V295.902H80.6608V290.238C80.6608 289.854 80.5915 289.587 80.4528 289.438C80.3248 289.278 80.1542 289.198 79.9408 289.198C79.7382 289.198 79.5622 289.267 79.4128 289.406C79.2742 289.534 79.2048 289.737 79.2048 290.014V295.902H77.2848V290.238C77.2848 289.854 77.2208 289.587 77.0928 289.438C76.9755 289.278 76.8102 289.198 76.5968 289.198C76.3835 289.198 76.2022 289.267 76.0528 289.406C75.9035 289.534 75.8288 289.737 75.8288 290.014V295.902H73.9248ZM89.9186 287.646H92.3346L88.4466 297.23C88.2012 297.838 87.8759 298.302 87.4706 298.622C87.0652 298.942 86.5106 299.102 85.8066 299.102H84.1746V297.262H86.1586L86.6706 295.854L83.3426 287.646H85.8866L87.0866 291.118L87.8386 293.518H87.9666L88.6866 291.118L89.9186 287.646ZM97.7683 296.094C97.1177 296.094 96.531 295.998 96.0083 295.806C95.4963 295.603 95.059 295.315 94.6963 294.942C94.3443 294.569 94.0723 294.115 93.8803 293.582C93.6883 293.049 93.5923 292.446 93.5923 291.774C93.5923 291.102 93.6883 290.499 93.8803 289.966C94.0723 289.433 94.3443 288.979 94.6963 288.606C95.059 288.233 95.4963 287.95 96.0083 287.758C96.531 287.555 97.1123 287.454 97.7523 287.454C98.659 287.454 99.3843 287.641 99.9283 288.014C100.483 288.377 100.904 288.862 101.192 289.47L99.3683 290.462C99.219 290.142 99.0217 289.875 98.7763 289.662C98.5417 289.449 98.2003 289.342 97.7523 289.342C97.2083 289.342 96.787 289.502 96.4883 289.822C96.2003 290.131 96.0563 290.558 96.0563 291.102V292.446C96.0563 292.99 96.2003 293.422 96.4883 293.742C96.787 294.051 97.219 294.206 97.7843 294.206C98.243 294.206 98.6003 294.099 98.8563 293.886C99.123 293.673 99.347 293.395 99.5283 293.054L101.32 294.078C101.022 294.686 100.584 295.177 100.008 295.55C99.443 295.913 98.6963 296.094 97.7683 296.094ZM107.026 296.094C106.386 296.094 105.81 295.998 105.298 295.806C104.786 295.603 104.349 295.315 103.986 294.942C103.634 294.569 103.362 294.115 103.17 293.582C102.978 293.049 102.882 292.446 102.882 291.774C102.882 291.102 102.978 290.499 103.17 289.966C103.362 289.433 103.634 288.979 103.986 288.606C104.349 288.233 104.786 287.95 105.298 287.758C105.81 287.555 106.386 287.454 107.026 287.454C107.666 287.454 108.242 287.555 108.754 287.758C109.266 287.95 109.698 288.233 110.05 288.606C110.413 288.979 110.69 289.433 110.882 289.966C111.074 290.499 111.17 291.102 111.17 291.774C111.17 292.446 111.074 293.049 110.882 293.582C110.69 294.115 110.413 294.569 110.05 294.942C109.698 295.315 109.266 295.603 108.754 295.806C108.242 295.998 107.666 296.094 107.026 296.094ZM107.026 294.334C107.559 294.334 107.975 294.169 108.274 293.838C108.573 293.507 108.722 293.038 108.722 292.43V291.118C108.722 290.51 108.573 290.041 108.274 289.71C107.975 289.379 107.559 289.214 107.026 289.214C106.493 289.214 106.077 289.379 105.778 289.71C105.479 290.041 105.33 290.51 105.33 291.118V292.43C105.33 293.038 105.479 293.507 105.778 293.838C106.077 294.169 106.493 294.334 107.026 294.334ZM118.108 294.398H117.996C117.782 294.899 117.484 295.31 117.1 295.63C116.726 295.939 116.209 296.094 115.548 296.094C115.089 296.094 114.668 296.009 114.284 295.838C113.91 295.667 113.585 295.406 113.308 295.054C113.041 294.702 112.828 294.254 112.668 293.71C112.518 293.166 112.444 292.521 112.444 291.774C112.444 291.027 112.518 290.382 112.668 289.838C112.828 289.294 113.041 288.846 113.308 288.494C113.585 288.142 113.91 287.881 114.284 287.71C114.668 287.539 115.089 287.454 115.548 287.454C115.878 287.454 116.172 287.497 116.428 287.582C116.684 287.667 116.908 287.785 117.1 287.934C117.302 288.083 117.473 288.265 117.612 288.478C117.761 288.681 117.889 288.905 117.996 289.15H118.108V284.062H120.476V295.902H118.108V294.398ZM116.572 294.254C116.988 294.254 117.345 294.153 117.644 293.95C117.953 293.747 118.108 293.427 118.108 292.99V290.558C118.108 290.121 117.953 289.801 117.644 289.598C117.345 289.395 116.988 289.294 116.572 289.294C116.038 289.294 115.628 289.459 115.34 289.79C115.052 290.11 114.908 290.558 114.908 291.134V292.414C114.908 292.99 115.052 293.443 115.34 293.774C115.628 294.094 116.038 294.254 116.572 294.254ZM126.438 296.094C125.051 296.094 124 295.71 123.286 294.942C122.571 294.174 122.214 293.129 122.214 291.806C122.214 291.134 122.304 290.531 122.486 289.998C122.678 289.454 122.944 288.995 123.286 288.622C123.638 288.238 124.059 287.95 124.55 287.758C125.051 287.555 125.611 287.454 126.23 287.454C126.848 287.454 127.403 287.555 127.894 287.758C128.384 287.95 128.8 288.227 129.142 288.59C129.483 288.953 129.744 289.395 129.926 289.918C130.118 290.43 130.214 291.006 130.214 291.646V292.35H124.566V292.494C124.566 293.027 124.731 293.459 125.062 293.79C125.392 294.11 125.878 294.27 126.518 294.27C127.008 294.27 127.43 294.179 127.782 293.998C128.134 293.806 128.438 293.555 128.694 293.246L129.974 294.638C129.654 295.033 129.206 295.374 128.63 295.662C128.054 295.95 127.323 296.094 126.438 296.094ZM126.246 289.15C125.734 289.15 125.323 289.31 125.014 289.63C124.715 289.939 124.566 290.361 124.566 290.894V291.022H127.894V290.894C127.894 290.35 127.744 289.923 127.446 289.614C127.158 289.305 126.758 289.15 126.246 289.15ZM135.807 296.094C135.21 296.094 134.778 295.966 134.511 295.71C134.255 295.443 134.127 295.129 134.127 294.766V294.206C134.127 293.843 134.255 293.534 134.511 293.278C134.778 293.011 135.21 292.878 135.807 292.878C136.405 292.878 136.831 293.011 137.087 293.278C137.354 293.534 137.487 293.843 137.487 294.206V294.766C137.487 295.129 137.354 295.443 137.087 295.71C136.831 295.966 136.405 296.094 135.807 296.094ZM146.041 295.902C145.188 295.902 144.553 295.678 144.137 295.23C143.721 294.782 143.513 294.211 143.513 293.518V289.486H141.273V287.646H142.729C143.081 287.646 143.332 287.577 143.481 287.438C143.63 287.299 143.705 287.043 143.705 286.67V284.734H145.881V287.646H149.097V289.486H145.881V294.062H149.097V295.902H146.041ZM154.899 296.094C153.981 296.094 153.181 295.955 152.499 295.678C151.827 295.401 151.32 295.022 150.979 294.542L152.307 293.31C152.627 293.662 153 293.939 153.427 294.142C153.864 294.334 154.36 294.43 154.915 294.43C155.384 294.43 155.752 294.361 156.019 294.222C156.285 294.073 156.419 293.849 156.419 293.55C156.419 293.315 156.328 293.155 156.147 293.07C155.965 292.974 155.715 292.899 155.395 292.846L154.067 292.638C153.693 292.585 153.347 292.505 153.027 292.398C152.707 292.281 152.429 292.126 152.195 291.934C151.96 291.742 151.773 291.507 151.635 291.23C151.496 290.953 151.427 290.617 151.427 290.222C151.427 289.358 151.757 288.681 152.419 288.19C153.08 287.699 154.008 287.454 155.203 287.454C156.013 287.454 156.701 287.566 157.267 287.79C157.843 288.003 158.301 288.313 158.643 288.718L157.459 290.062C157.213 289.795 156.899 289.571 156.515 289.39C156.131 289.209 155.667 289.118 155.123 289.118C154.205 289.118 153.747 289.395 153.747 289.95C153.747 290.195 153.837 290.366 154.019 290.462C154.2 290.547 154.451 290.617 154.771 290.67L156.083 290.878C156.456 290.931 156.803 291.017 157.123 291.134C157.443 291.241 157.72 291.39 157.955 291.582C158.2 291.774 158.392 292.009 158.531 292.286C158.669 292.563 158.739 292.899 158.739 293.294C158.739 294.158 158.403 294.841 157.731 295.342C157.069 295.843 156.125 296.094 154.899 296.094Z"
        fill="white"
      />
      <g style="mix-blend-mode: multiply">
        <rect
          x="42.2671"
          y="330.361"
          width="190.601"
          height="29.2729"
          fill="url(#paint0_linear_112_125)"
        />
      </g>
      <path
        d="M29.3325 359.635H245.803V367.325C245.803 372.295 241.773 376.325 236.803 376.325H38.3325C33.3619 376.325 29.3325 372.295 29.3325 367.325V359.635Z"
        fill="#D0D3DA"
      />
      <line
        x1="75.4448"
        y1="313.821"
        x2="123.802"
        y2="313.821"
        stroke="#1886FF"
        stroke-width="4"
        stroke-linecap="round"
      />
      <line
        x1="118.969"
        y1="326.361"
        x2="182.951"
        y2="326.361"
        stroke="#394150"
        stroke-width="4"
        stroke-linecap="round"
      />
      <line
        x1="137.151"
        y1="313.821"
        x2="160.732"
        y2="313.821"
        stroke="white"
        stroke-width="4"
        stroke-linecap="round"
      />
      <line
        x1="75.6113"
        y1="326.361"
        x2="107.423"
        y2="326.361"
        stroke="white"
        stroke-width="4"
        stroke-linecap="round"
      />
      <line
        x1="75.4448"
        y1="339.113"
        x2="99.0257"
        y2="339.113"
        stroke="#1886FF"
        stroke-width="4"
        stroke-linecap="round"
      />
      <line
        x1="109.436"
        y1="339.113"
        x2="133.016"
        y2="339.113"
        stroke="#394150"
        stroke-width="4"
        stroke-linecap="round"
      />
      <line
        x1="146.031"
        y1="339.113"
        x2="169.612"
        y2="339.113"
        stroke="#1886FF"
        stroke-width="4"
        stroke-linecap="round"
      />
    </g>
    <g filter="url(#filter1_d_112_125)">
      <path
        d="M854.852 254.867C855.99 253.605 857.609 252.885 859.308 252.885H945.744C949.057 252.885 951.744 255.571 951.744 258.885V380.325C951.744 383.638 949.057 386.325 945.744 386.325H834.949C831.635 386.325 828.949 383.638 828.949 380.325V285.897C828.949 284.413 829.499 282.982 830.493 281.879L854.852 254.867Z"
        fill="#D0D3DA"
      />
      <g style="mix-blend-mode: multiply">
        <path
          d="M922.855 252.859L828.932 363.628L828.932 283.757L856.655 252.859L922.855 252.859Z"
          fill="url(#paint1_linear_112_125)"
        />
      </g>
      <path
        d="M856.643 277.701C856.643 281.015 853.957 283.701 850.643 283.701H828.932L856.643 252.885V277.701Z"
        fill="#70788A"
      />
      <path
        d="M856.553 323.797C855.913 323.797 855.337 323.701 854.825 323.509C854.313 323.306 853.876 323.018 853.513 322.645C853.161 322.272 852.889 321.818 852.697 321.285C852.505 320.752 852.409 320.149 852.409 319.477C852.409 318.805 852.505 318.202 852.697 317.669C852.889 317.136 853.161 316.682 853.513 316.309C853.876 315.936 854.313 315.653 854.825 315.461C855.337 315.258 855.913 315.157 856.553 315.157C857.193 315.157 857.769 315.258 858.281 315.461C858.793 315.653 859.225 315.936 859.577 316.309C859.94 316.682 860.217 317.136 860.409 317.669C860.601 318.202 860.697 318.805 860.697 319.477C860.697 320.149 860.601 320.752 860.409 321.285C860.217 321.818 859.94 322.272 859.577 322.645C859.225 323.018 858.793 323.306 858.281 323.509C857.769 323.701 857.193 323.797 856.553 323.797ZM856.553 322.037C857.087 322.037 857.503 321.872 857.801 321.541C858.1 321.21 858.249 320.741 858.249 320.133V318.821C858.249 318.213 858.1 317.744 857.801 317.413C857.503 317.082 857.087 316.917 856.553 316.917C856.02 316.917 855.604 317.082 855.305 317.413C855.007 317.744 854.857 318.213 854.857 318.821V320.133C854.857 320.741 855.007 321.21 855.305 321.541C855.604 321.872 856.02 322.037 856.553 322.037ZM869.139 323.605C868.649 323.605 868.254 323.482 867.955 323.237C867.657 322.981 867.481 322.618 867.427 322.149H867.347C867.198 322.693 866.899 323.104 866.451 323.381C866.014 323.658 865.475 323.797 864.835 323.797C864.035 323.797 863.39 323.584 862.899 323.157C862.419 322.72 862.179 322.112 862.179 321.333C862.179 320.469 862.494 319.829 863.123 319.413C863.753 318.997 864.675 318.789 865.891 318.789H867.219V318.373C867.219 317.882 867.102 317.514 866.867 317.269C866.643 317.013 866.259 316.885 865.715 316.885C865.214 316.885 864.809 316.981 864.499 317.173C864.19 317.365 863.923 317.616 863.699 317.925L862.403 316.773C862.681 316.304 863.113 315.92 863.699 315.621C864.297 315.312 865.059 315.157 865.987 315.157C867.118 315.157 867.998 315.418 868.627 315.941C869.267 316.453 869.587 317.232 869.587 318.277V321.893H870.499V323.605H869.139ZM865.731 322.245C866.147 322.245 866.499 322.144 866.787 321.941C867.075 321.738 867.219 321.445 867.219 321.061V320.069H865.955C864.985 320.069 864.499 320.394 864.499 321.045V321.365C864.499 321.653 864.611 321.872 864.835 322.021C865.059 322.17 865.358 322.245 865.731 322.245ZM875.645 323.797C874.728 323.797 873.928 323.658 873.245 323.381C872.573 323.104 872.066 322.725 871.725 322.245L873.053 321.013C873.373 321.365 873.746 321.642 874.173 321.845C874.61 322.037 875.106 322.133 875.661 322.133C876.13 322.133 876.498 322.064 876.765 321.925C877.032 321.776 877.165 321.552 877.165 321.253C877.165 321.018 877.074 320.858 876.893 320.773C876.712 320.677 876.461 320.602 876.141 320.549L874.813 320.341C874.44 320.288 874.093 320.208 873.773 320.101C873.453 319.984 873.176 319.829 872.941 319.637C872.706 319.445 872.52 319.21 872.381 318.933C872.242 318.656 872.173 318.32 872.173 317.925C872.173 317.061 872.504 316.384 873.165 315.893C873.826 315.402 874.754 315.157 875.949 315.157C876.76 315.157 877.448 315.269 878.013 315.493C878.589 315.706 879.048 316.016 879.389 316.421L878.205 317.765C877.96 317.498 877.645 317.274 877.261 317.093C876.877 316.912 876.413 316.821 875.869 316.821C874.952 316.821 874.493 317.098 874.493 317.653C874.493 317.898 874.584 318.069 874.765 318.165C874.946 318.25 875.197 318.32 875.517 318.373L876.829 318.581C877.202 318.634 877.549 318.72 877.869 318.837C878.189 318.944 878.466 319.093 878.701 319.285C878.946 319.477 879.138 319.712 879.277 319.989C879.416 320.266 879.485 320.602 879.485 320.997C879.485 321.861 879.149 322.544 878.477 323.045C877.816 323.546 876.872 323.797 875.645 323.797ZM885.335 323.797C884.737 323.797 884.305 323.669 884.039 323.413C883.783 323.146 883.655 322.832 883.655 322.469V321.909C883.655 321.546 883.783 321.237 884.039 320.981C884.305 320.714 884.737 320.581 885.335 320.581C885.932 320.581 886.359 320.714 886.615 320.981C886.881 321.237 887.015 321.546 887.015 321.909V322.469C887.015 322.832 886.881 323.146 886.615 323.413C886.359 323.669 885.932 323.797 885.335 323.797ZM891.6 324.965H894.768V317.189H891.568V315.349H897.136V324.421C897.136 325.114 896.928 325.685 896.512 326.133C896.096 326.581 895.467 326.805 894.624 326.805H891.6V324.965ZM895.952 314.293C895.419 314.293 895.046 314.186 894.832 313.973C894.63 313.749 894.528 313.482 894.528 313.173V312.709C894.528 312.389 894.63 312.122 894.832 311.909C895.046 311.696 895.419 311.589 895.952 311.589C896.475 311.589 896.843 311.696 897.056 311.909C897.27 312.122 897.376 312.389 897.376 312.709V313.173C897.376 313.482 897.27 313.749 897.056 313.973C896.843 314.186 896.475 314.293 895.952 314.293ZM904.426 323.797C903.509 323.797 902.709 323.658 902.026 323.381C901.354 323.104 900.848 322.725 900.506 322.245L901.834 321.013C902.154 321.365 902.528 321.642 902.954 321.845C903.392 322.037 903.888 322.133 904.442 322.133C904.912 322.133 905.28 322.064 905.546 321.925C905.813 321.776 905.946 321.552 905.946 321.253C905.946 321.018 905.856 320.858 905.674 320.773C905.493 320.677 905.242 320.602 904.922 320.549L903.594 320.341C903.221 320.288 902.874 320.208 902.554 320.101C902.234 319.984 901.957 319.829 901.722 319.637C901.488 319.445 901.301 319.21 901.162 318.933C901.024 318.656 900.954 318.32 900.954 317.925C900.954 317.061 901.285 316.384 901.946 315.893C902.608 315.402 903.536 315.157 904.73 315.157C905.541 315.157 906.229 315.269 906.794 315.493C907.37 315.706 907.829 316.016 908.17 316.421L906.986 317.765C906.741 317.498 906.426 317.274 906.042 317.093C905.658 316.912 905.194 316.821 904.65 316.821C903.733 316.821 903.274 317.098 903.274 317.653C903.274 317.898 903.365 318.069 903.546 318.165C903.728 318.25 903.978 318.32 904.298 318.373L905.61 318.581C905.984 318.634 906.33 318.72 906.65 318.837C906.97 318.944 907.248 319.093 907.482 319.285C907.728 319.477 907.92 319.712 908.058 319.989C908.197 320.266 908.266 320.602 908.266 320.997C908.266 321.861 907.93 322.544 907.258 323.045C906.597 323.546 905.653 323.797 904.426 323.797ZM914.116 323.797C913.476 323.797 912.9 323.701 912.388 323.509C911.876 323.306 911.439 323.018 911.076 322.645C910.724 322.272 910.452 321.818 910.26 321.285C910.068 320.752 909.972 320.149 909.972 319.477C909.972 318.805 910.068 318.202 910.26 317.669C910.452 317.136 910.724 316.682 911.076 316.309C911.439 315.936 911.876 315.653 912.388 315.461C912.9 315.258 913.476 315.157 914.116 315.157C914.756 315.157 915.332 315.258 915.844 315.461C916.356 315.653 916.788 315.936 917.14 316.309C917.503 316.682 917.78 317.136 917.972 317.669C918.164 318.202 918.26 318.805 918.26 319.477C918.26 320.149 918.164 320.752 917.972 321.285C917.78 321.818 917.503 322.272 917.14 322.645C916.788 323.018 916.356 323.306 915.844 323.509C915.332 323.701 914.756 323.797 914.116 323.797ZM914.116 322.037C914.649 322.037 915.065 321.872 915.364 321.541C915.663 321.21 915.812 320.741 915.812 320.133V318.821C915.812 318.213 915.663 317.744 915.364 317.413C915.065 317.082 914.649 316.917 914.116 316.917C913.583 316.917 913.167 317.082 912.868 317.413C912.569 317.744 912.42 318.213 912.42 318.821V320.133C912.42 320.741 912.569 321.21 912.868 321.541C913.167 321.872 913.583 322.037 914.116 322.037ZM919.95 323.605V315.349H922.318V316.853H922.414C922.51 316.618 922.627 316.4 922.766 316.197C922.904 315.994 923.07 315.818 923.262 315.669C923.464 315.509 923.694 315.386 923.95 315.301C924.216 315.205 924.515 315.157 924.846 315.157C925.24 315.157 925.603 315.226 925.934 315.365C926.264 315.493 926.547 315.69 926.782 315.957C927.016 316.224 927.198 316.549 927.326 316.933C927.464 317.317 927.534 317.76 927.534 318.261V323.605H925.166V318.581C925.166 317.514 924.702 316.981 923.774 316.981C923.592 316.981 923.411 317.008 923.23 317.061C923.059 317.104 922.904 317.178 922.766 317.285C922.627 317.381 922.515 317.504 922.43 317.653C922.355 317.802 922.318 317.978 922.318 318.181V323.605H919.95Z"
        fill="#1C212C"
      />
    </g>
    <g clip-path="url(#clip1_112_125)">
      <path d="M473.434 252.885H568.539V386.325H445.744V283.592L473.434 252.885Z" fill="#F3F4F6" />
      <g style="mix-blend-mode: multiply">
        <path
          d="M539.651 252.859L445.727 363.628L445.727 283.757L473.451 252.859L539.651 252.859Z"
          fill="url(#paint2_linear_112_125)"
        />
      </g>
      <path
        d="M473.438 277.701C473.438 281.015 470.752 283.701 467.438 283.701H445.728L473.438 252.885V277.701Z"
        fill="#70788A"
      />
      <path
        d="M466.971 314.605C466.48 314.605 466.085 314.482 465.787 314.237C465.488 313.981 465.312 313.618 465.259 313.149H465.179C465.029 313.693 464.731 314.104 464.283 314.381C463.845 314.658 463.307 314.797 462.667 314.797C461.867 314.797 461.221 314.584 460.731 314.157C460.251 313.72 460.011 313.112 460.011 312.333C460.011 311.469 460.325 310.829 460.955 310.413C461.584 309.997 462.507 309.789 463.723 309.789H465.051V309.373C465.051 308.882 464.933 308.514 464.699 308.269C464.475 308.013 464.091 307.885 463.547 307.885C463.045 307.885 462.64 307.981 462.331 308.173C462.021 308.365 461.755 308.616 461.531 308.925L460.235 307.773C460.512 307.304 460.944 306.92 461.531 306.621C462.128 306.312 462.891 306.157 463.819 306.157C464.949 306.157 465.829 306.418 466.459 306.941C467.099 307.453 467.419 308.232 467.419 309.277V312.893H468.331V314.605H466.971ZM463.563 313.245C463.979 313.245 464.331 313.144 464.619 312.941C464.907 312.738 465.051 312.445 465.051 312.061V311.069H463.787C462.816 311.069 462.331 311.394 462.331 312.045V312.365C462.331 312.653 462.443 312.872 462.667 313.021C462.891 313.17 463.189 313.245 463.563 313.245ZM469.716 306.349H472.084V307.853H472.196C472.399 307.362 472.692 306.957 473.076 306.637C473.46 306.317 473.983 306.157 474.644 306.157C475.103 306.157 475.519 306.242 475.892 306.413C476.276 306.584 476.602 306.845 476.868 307.197C477.146 307.549 477.359 307.997 477.508 308.541C477.668 309.085 477.748 309.73 477.748 310.477C477.748 311.224 477.668 311.869 477.508 312.413C477.359 312.957 477.146 313.405 476.868 313.757C476.602 314.109 476.276 314.37 475.892 314.541C475.519 314.712 475.103 314.797 474.644 314.797C473.983 314.797 473.46 314.642 473.076 314.333C472.692 314.013 472.399 313.602 472.196 313.101H472.084V317.805H469.716V306.349ZM473.62 312.957C474.154 312.957 474.564 312.797 474.852 312.477C475.14 312.146 475.284 311.693 475.284 311.117V309.837C475.284 309.261 475.14 308.813 474.852 308.493C474.564 308.162 474.154 307.997 473.62 307.997C473.204 307.997 472.842 308.098 472.532 308.301C472.234 308.504 472.084 308.824 472.084 309.261V311.693C472.084 312.13 472.234 312.45 472.532 312.653C472.842 312.856 473.204 312.957 473.62 312.957ZM483.678 305.293C483.145 305.293 482.772 305.186 482.558 304.973C482.356 304.749 482.254 304.482 482.254 304.173V303.709C482.254 303.389 482.356 303.122 482.558 302.909C482.772 302.696 483.145 302.589 483.678 302.589C484.212 302.589 484.58 302.696 484.782 302.909C484.996 303.122 485.102 303.389 485.102 303.709V304.173C485.102 304.482 484.996 304.749 484.782 304.973C484.58 305.186 484.212 305.293 483.678 305.293ZM479.87 312.765H482.494V308.189H479.87V306.349H484.862V312.765H487.294V314.605H479.87V312.765ZM490.2 310.861V308.589H495.32V310.861H490.2ZM502.994 314.605C502.14 314.605 501.506 314.381 501.09 313.933C500.674 313.485 500.466 312.914 500.466 312.221V308.189H498.226V306.349H499.682C500.034 306.349 500.284 306.28 500.434 306.141C500.583 306.002 500.658 305.746 500.658 305.373V303.437H502.834V306.349H506.05V308.189H502.834V312.765H506.05V314.605H502.994ZM514.027 306.349H516.443L512.555 315.933C512.31 316.541 511.985 317.005 511.579 317.325C511.174 317.645 510.619 317.805 509.915 317.805H508.283V315.965H510.267L510.779 314.557L507.451 306.349H509.995L511.195 309.821L511.947 312.221H512.075L512.795 309.821L514.027 306.349ZM517.685 306.349H520.053V307.853H520.165C520.368 307.362 520.661 306.957 521.045 306.637C521.429 306.317 521.952 306.157 522.613 306.157C523.072 306.157 523.488 306.242 523.861 306.413C524.245 306.584 524.571 306.845 524.837 307.197C525.115 307.549 525.328 307.997 525.477 308.541C525.637 309.085 525.717 309.73 525.717 310.477C525.717 311.224 525.637 311.869 525.477 312.413C525.328 312.957 525.115 313.405 524.837 313.757C524.571 314.109 524.245 314.37 523.861 314.541C523.488 314.712 523.072 314.797 522.613 314.797C521.952 314.797 521.429 314.642 521.045 314.333C520.661 314.013 520.368 313.602 520.165 313.101H520.053V317.805H517.685V306.349ZM521.589 312.957C522.123 312.957 522.533 312.797 522.821 312.477C523.109 312.146 523.253 311.693 523.253 311.117V309.837C523.253 309.261 523.109 308.813 522.821 308.493C522.533 308.162 522.123 307.997 521.589 307.997C521.173 307.997 520.811 308.098 520.501 308.301C520.203 308.504 520.053 308.824 520.053 309.261V311.693C520.053 312.13 520.203 312.45 520.501 312.653C520.811 312.856 521.173 312.957 521.589 312.957ZM531.359 314.797C529.972 314.797 528.922 314.413 528.207 313.645C527.492 312.877 527.135 311.832 527.135 310.509C527.135 309.837 527.226 309.234 527.407 308.701C527.599 308.157 527.866 307.698 528.207 307.325C528.559 306.941 528.98 306.653 529.471 306.461C529.972 306.258 530.532 306.157 531.151 306.157C531.77 306.157 532.324 306.258 532.815 306.461C533.306 306.653 533.722 306.93 534.063 307.293C534.404 307.656 534.666 308.098 534.847 308.621C535.039 309.133 535.135 309.709 535.135 310.349V311.053H529.487V311.197C529.487 311.73 529.652 312.162 529.983 312.493C530.314 312.813 530.799 312.973 531.439 312.973C531.93 312.973 532.351 312.882 532.703 312.701C533.055 312.509 533.359 312.258 533.615 311.949L534.895 313.341C534.575 313.736 534.127 314.077 533.551 314.365C532.975 314.653 532.244 314.797 531.359 314.797ZM531.167 307.853C530.655 307.853 530.244 308.013 529.935 308.333C529.636 308.642 529.487 309.064 529.487 309.597V309.725H532.815V309.597C532.815 309.053 532.666 308.626 532.367 308.317C532.079 308.008 531.679 307.853 531.167 307.853ZM540.633 314.797C539.715 314.797 538.915 314.658 538.233 314.381C537.561 314.104 537.054 313.725 536.713 313.245L538.041 312.013C538.361 312.365 538.734 312.642 539.161 312.845C539.598 313.037 540.094 313.133 540.649 313.133C541.118 313.133 541.486 313.064 541.753 312.925C542.019 312.776 542.153 312.552 542.153 312.253C542.153 312.018 542.062 311.858 541.881 311.773C541.699 311.677 541.449 311.602 541.129 311.549L539.801 311.341C539.427 311.288 539.081 311.208 538.761 311.101C538.441 310.984 538.163 310.829 537.929 310.637C537.694 310.445 537.507 310.21 537.369 309.933C537.23 309.656 537.161 309.32 537.161 308.925C537.161 308.061 537.491 307.384 538.153 306.893C538.814 306.402 539.742 306.157 540.937 306.157C541.747 306.157 542.435 306.269 543.001 306.493C543.577 306.706 544.035 307.016 544.377 307.421L543.193 308.765C542.947 308.498 542.633 308.274 542.249 308.093C541.865 307.912 541.401 307.821 540.857 307.821C539.939 307.821 539.481 308.098 539.481 308.653C539.481 308.898 539.571 309.069 539.753 309.165C539.934 309.25 540.185 309.32 540.505 309.373L541.817 309.581C542.19 309.634 542.537 309.72 542.857 309.837C543.177 309.944 543.454 310.093 543.689 310.285C543.934 310.477 544.126 310.712 544.265 310.989C544.403 311.266 544.473 311.602 544.473 311.997C544.473 312.861 544.137 313.544 543.465 314.045C542.803 314.546 541.859 314.797 540.633 314.797ZM550.322 314.797C549.725 314.797 549.293 314.669 549.026 314.413C548.77 314.146 548.642 313.832 548.642 313.469V312.909C548.642 312.546 548.77 312.237 549.026 311.981C549.293 311.714 549.725 311.581 550.322 311.581C550.92 311.581 551.346 311.714 551.602 311.981C551.869 312.237 552.002 312.546 552.002 312.909V313.469C552.002 313.832 551.869 314.146 551.602 314.413C551.346 314.669 550.92 314.797 550.322 314.797ZM468.507 335.437C468.507 336.312 468.139 336.957 467.403 337.373C466.667 337.789 465.509 337.997 463.931 337.997C463.141 337.997 462.491 337.949 461.979 337.853C461.467 337.768 461.056 337.64 460.747 337.469C460.448 337.298 460.235 337.096 460.107 336.861C459.989 336.626 459.931 336.37 459.931 336.093C459.931 335.624 460.069 335.266 460.347 335.021C460.624 334.786 461.013 334.605 461.515 334.477V334.381C461.163 334.274 460.88 334.125 460.667 333.933C460.464 333.73 460.363 333.448 460.363 333.085C460.363 332.68 460.496 332.381 460.763 332.189C461.04 331.997 461.403 331.848 461.851 331.741V331.645C461.36 331.41 460.976 331.08 460.699 330.653C460.432 330.226 460.299 329.709 460.299 329.101C460.299 328.621 460.384 328.2 460.555 327.837C460.725 327.464 460.965 327.154 461.275 326.909C461.595 326.664 461.973 326.477 462.411 326.349C462.848 326.221 463.339 326.157 463.883 326.157C464.405 326.157 464.891 326.216 465.339 326.333V325.885C465.339 325.565 465.451 325.298 465.675 325.085C465.899 324.872 466.208 324.765 466.603 324.765H468.059V326.493H466.075V326.637C466.523 326.872 466.869 327.197 467.115 327.613C467.371 328.018 467.499 328.514 467.499 329.101C467.499 329.581 467.413 330.002 467.243 330.365C467.072 330.728 466.827 331.037 466.507 331.293C466.187 331.538 465.803 331.725 465.355 331.853C464.917 331.981 464.427 332.045 463.883 332.045C463.637 332.045 463.403 332.034 463.179 332.013C462.955 331.981 462.741 331.938 462.539 331.885C462.421 331.949 462.32 332.029 462.235 332.125C462.16 332.221 462.123 332.344 462.123 332.493C462.123 332.621 462.155 332.722 462.219 332.797C462.283 332.872 462.368 332.93 462.475 332.973C462.592 333.005 462.725 333.026 462.875 333.037C463.024 333.048 463.179 333.053 463.339 333.053H465.227C465.813 333.053 466.315 333.112 466.731 333.229C467.147 333.346 467.488 333.512 467.755 333.725C468.021 333.938 468.213 334.189 468.331 334.477C468.448 334.765 468.507 335.085 468.507 335.437ZM466.267 335.613C466.267 335.4 466.181 335.229 466.011 335.101C465.84 334.984 465.515 334.925 465.035 334.925H462.203C461.989 335.106 461.883 335.33 461.883 335.597C461.883 335.853 461.989 336.061 462.203 336.221C462.427 336.392 462.8 336.477 463.323 336.477H464.715C465.259 336.477 465.653 336.402 465.899 336.253C466.144 336.104 466.267 335.89 466.267 335.613ZM463.883 330.541C464.363 330.541 464.709 330.424 464.923 330.189C465.147 329.954 465.259 329.656 465.259 329.293V328.909C465.259 328.546 465.147 328.248 464.923 328.013C464.709 327.778 464.363 327.661 463.883 327.661C463.413 327.661 463.072 327.778 462.859 328.013C462.645 328.248 462.539 328.546 462.539 328.909V329.293C462.539 329.656 462.645 329.954 462.859 330.189C463.072 330.424 463.413 330.541 463.883 330.541ZM473.796 334.797C472.41 334.797 471.359 334.413 470.644 333.645C469.93 332.877 469.572 331.832 469.572 330.509C469.572 329.837 469.663 329.234 469.844 328.701C470.036 328.157 470.303 327.698 470.644 327.325C470.996 326.941 471.418 326.653 471.908 326.461C472.41 326.258 472.97 326.157 473.588 326.157C474.207 326.157 474.762 326.258 475.252 326.461C475.743 326.653 476.159 326.93 476.5 327.293C476.842 327.656 477.103 328.098 477.284 328.621C477.476 329.133 477.572 329.709 477.572 330.349V331.053H471.924V331.197C471.924 331.73 472.09 332.162 472.42 332.493C472.751 332.813 473.236 332.973 473.876 332.973C474.367 332.973 474.788 332.882 475.14 332.701C475.492 332.509 475.796 332.258 476.052 331.949L477.332 333.341C477.012 333.736 476.564 334.077 475.988 334.365C475.412 334.653 474.682 334.797 473.796 334.797ZM473.604 327.853C473.092 327.853 472.682 328.013 472.372 328.333C472.074 328.642 471.924 329.064 471.924 329.597V329.725H475.252V329.597C475.252 329.053 475.103 328.626 474.804 328.317C474.516 328.008 474.116 327.853 473.604 327.853ZM479.406 334.605V326.349H481.774V327.853H481.87C481.966 327.618 482.084 327.4 482.222 327.197C482.361 326.994 482.526 326.818 482.718 326.669C482.921 326.509 483.15 326.386 483.406 326.301C483.673 326.205 483.972 326.157 484.302 326.157C484.697 326.157 485.06 326.226 485.39 326.365C485.721 326.493 486.004 326.69 486.238 326.957C486.473 327.224 486.654 327.549 486.782 327.933C486.921 328.317 486.99 328.76 486.99 329.261V334.605H484.622V329.581C484.622 328.514 484.158 327.981 483.23 327.981C483.049 327.981 482.868 328.008 482.686 328.061C482.516 328.104 482.361 328.178 482.222 328.285C482.084 328.381 481.972 328.504 481.886 328.653C481.812 328.802 481.774 328.978 481.774 329.181V334.605H479.406ZM492.984 334.797C491.597 334.797 490.547 334.413 489.832 333.645C489.117 332.877 488.76 331.832 488.76 330.509C488.76 329.837 488.851 329.234 489.032 328.701C489.224 328.157 489.491 327.698 489.832 327.325C490.184 326.941 490.605 326.653 491.096 326.461C491.597 326.258 492.157 326.157 492.776 326.157C493.395 326.157 493.949 326.258 494.44 326.461C494.931 326.653 495.347 326.93 495.688 327.293C496.029 327.656 496.291 328.098 496.472 328.621C496.664 329.133 496.76 329.709 496.76 330.349V331.053H491.112V331.197C491.112 331.73 491.277 332.162 491.608 332.493C491.939 332.813 492.424 332.973 493.064 332.973C493.555 332.973 493.976 332.882 494.328 332.701C494.68 332.509 494.984 332.258 495.24 331.949L496.52 333.341C496.2 333.736 495.752 334.077 495.176 334.365C494.6 334.653 493.869 334.797 492.984 334.797ZM492.792 327.853C492.28 327.853 491.869 328.013 491.56 328.333C491.261 328.642 491.112 329.064 491.112 329.597V329.725H494.44V329.597C494.44 329.053 494.291 328.626 493.992 328.317C493.704 328.008 493.304 327.853 492.792 327.853ZM498.738 332.765H500.642V328.189H498.738V326.349H503.01V328.685H503.122C503.196 328.386 503.298 328.098 503.426 327.821C503.564 327.533 503.735 327.282 503.938 327.069C504.151 326.845 504.407 326.669 504.706 326.541C505.004 326.413 505.356 326.349 505.762 326.349H506.546V328.525H504.786C504.199 328.525 503.756 328.701 503.458 329.053C503.159 329.394 503.01 329.816 503.01 330.317V332.765H505.73V334.605H498.738V332.765ZM514.939 334.605C514.449 334.605 514.054 334.482 513.755 334.237C513.457 333.981 513.281 333.618 513.227 333.149H513.147C512.998 333.693 512.699 334.104 512.251 334.381C511.814 334.658 511.275 334.797 510.635 334.797C509.835 334.797 509.19 334.584 508.699 334.157C508.219 333.72 507.979 333.112 507.979 332.333C507.979 331.469 508.294 330.829 508.923 330.413C509.553 329.997 510.475 329.789 511.691 329.789H513.019V329.373C513.019 328.882 512.902 328.514 512.667 328.269C512.443 328.013 512.059 327.885 511.515 327.885C511.014 327.885 510.609 327.981 510.299 328.173C509.99 328.365 509.723 328.616 509.499 328.925L508.203 327.773C508.481 327.304 508.913 326.92 509.499 326.621C510.097 326.312 510.859 326.157 511.787 326.157C512.918 326.157 513.798 326.418 514.427 326.941C515.067 327.453 515.387 328.232 515.387 329.277V332.893H516.299V334.605H514.939ZM511.531 333.245C511.947 333.245 512.299 333.144 512.587 332.941C512.875 332.738 513.019 332.445 513.019 332.061V331.069H511.755C510.785 331.069 510.299 331.394 510.299 332.045V332.365C510.299 332.653 510.411 332.872 510.635 333.021C510.859 333.17 511.158 333.245 511.531 333.245ZM522.181 334.605C521.328 334.605 520.693 334.381 520.277 333.933C519.861 333.485 519.653 332.914 519.653 332.221V328.189H517.413V326.349H518.869C519.221 326.349 519.472 326.28 519.621 326.141C519.771 326.002 519.845 325.746 519.845 325.373V323.437H522.021V326.349H525.237V328.189H522.021V332.765H525.237V334.605H522.181ZM531.359 334.797C529.972 334.797 528.922 334.413 528.207 333.645C527.492 332.877 527.135 331.832 527.135 330.509C527.135 329.837 527.226 329.234 527.407 328.701C527.599 328.157 527.866 327.698 528.207 327.325C528.559 326.941 528.98 326.653 529.471 326.461C529.972 326.258 530.532 326.157 531.151 326.157C531.77 326.157 532.324 326.258 532.815 326.461C533.306 326.653 533.722 326.93 534.063 327.293C534.404 327.656 534.666 328.098 534.847 328.621C535.039 329.133 535.135 329.709 535.135 330.349V331.053H529.487V331.197C529.487 331.73 529.652 332.162 529.983 332.493C530.314 332.813 530.799 332.973 531.439 332.973C531.93 332.973 532.351 332.882 532.703 332.701C533.055 332.509 533.359 332.258 533.615 331.949L534.895 333.341C534.575 333.736 534.127 334.077 533.551 334.365C532.975 334.653 532.244 334.797 531.359 334.797ZM531.167 327.853C530.655 327.853 530.244 328.013 529.935 328.333C529.636 328.642 529.487 329.064 529.487 329.597V329.725H532.815V329.597C532.815 329.053 532.666 328.626 532.367 328.317C532.079 328.008 531.679 327.853 531.167 327.853ZM542.217 333.101H542.105C541.891 333.602 541.593 334.013 541.209 334.333C540.835 334.642 540.318 334.797 539.657 334.797C539.198 334.797 538.777 334.712 538.393 334.541C538.019 334.37 537.694 334.109 537.417 333.757C537.15 333.405 536.937 332.957 536.777 332.413C536.627 331.869 536.553 331.224 536.553 330.477C536.553 329.73 536.627 329.085 536.777 328.541C536.937 327.997 537.15 327.549 537.417 327.197C537.694 326.845 538.019 326.584 538.393 326.413C538.777 326.242 539.198 326.157 539.657 326.157C539.987 326.157 540.281 326.2 540.537 326.285C540.793 326.37 541.017 326.488 541.209 326.637C541.411 326.786 541.582 326.968 541.721 327.181C541.87 327.384 541.998 327.608 542.105 327.853H542.217V322.765H544.585V334.605H542.217V333.101ZM540.681 332.957C541.097 332.957 541.454 332.856 541.753 332.653C542.062 332.45 542.217 332.13 542.217 331.693V329.261C542.217 328.824 542.062 328.504 541.753 328.301C541.454 328.098 541.097 327.997 540.681 327.997C540.147 327.997 539.737 328.162 539.449 328.493C539.161 328.813 539.017 329.261 539.017 329.837V331.117C539.017 331.693 539.161 332.146 539.449 332.477C539.737 332.797 540.147 332.957 540.681 332.957ZM550.322 334.797C549.725 334.797 549.293 334.669 549.026 334.413C548.77 334.146 548.642 333.832 548.642 333.469V332.909C548.642 332.546 548.77 332.237 549.026 331.981C549.293 331.714 549.725 331.581 550.322 331.581C550.92 331.581 551.346 331.714 551.602 331.981C551.869 332.237 552.002 332.546 552.002 332.909V333.469C552.002 333.832 551.869 334.146 551.602 334.413C551.346 334.669 550.92 334.797 550.322 334.797ZM464.619 354.605C463.765 354.605 463.131 354.381 462.715 353.933C462.299 353.485 462.091 352.914 462.091 352.221V348.189H459.851V346.349H461.307C461.659 346.349 461.909 346.28 462.059 346.141C462.208 346.002 462.283 345.746 462.283 345.373V343.437H464.459V346.349H467.675V348.189H464.459V352.765H467.675V354.605H464.619ZM473.476 354.797C472.559 354.797 471.759 354.658 471.076 354.381C470.404 354.104 469.898 353.725 469.556 353.245L470.884 352.013C471.204 352.365 471.578 352.642 472.004 352.845C472.442 353.037 472.938 353.133 473.492 353.133C473.962 353.133 474.33 353.064 474.596 352.925C474.863 352.776 474.996 352.552 474.996 352.253C474.996 352.018 474.906 351.858 474.724 351.773C474.543 351.677 474.292 351.602 473.972 351.549L472.644 351.341C472.271 351.288 471.924 351.208 471.604 351.101C471.284 350.984 471.007 350.829 470.772 350.637C470.538 350.445 470.351 350.21 470.212 349.933C470.074 349.656 470.004 349.32 470.004 348.925C470.004 348.061 470.335 347.384 470.996 346.893C471.658 346.402 472.586 346.157 473.78 346.157C474.591 346.157 475.279 346.269 475.844 346.493C476.42 346.706 476.879 347.016 477.22 347.421L476.036 348.765C475.791 348.498 475.476 348.274 475.092 348.093C474.708 347.912 474.244 347.821 473.7 347.821C472.783 347.821 472.324 348.098 472.324 348.653C472.324 348.898 472.415 349.069 472.596 349.165C472.778 349.25 473.028 349.32 473.348 349.373L474.66 349.581C475.034 349.634 475.38 349.72 475.7 349.837C476.02 349.944 476.298 350.093 476.532 350.285C476.778 350.477 476.97 350.712 477.108 350.989C477.247 351.266 477.316 351.602 477.316 351.997C477.316 352.861 476.98 353.544 476.308 354.045C475.647 354.546 474.703 354.797 473.476 354.797Z"
        fill="#70788A"
      />
    </g>
    <path
      d="M503.9 386.447L498.127 396.447L509.674 396.447L503.9 386.447ZM634.094 465.779L631.179 465.779L631.179 467.779L634.094 467.779L634.094 465.779ZM628.264 465.779L622.434 465.779L622.434 467.779L628.264 467.779L628.264 465.779ZM619.519 465.779L613.689 465.779L613.689 467.779L619.519 467.779L619.519 465.779ZM610.774 465.779L604.944 465.779L604.944 467.779L610.774 467.779L610.774 465.779ZM602.029 465.779L596.199 465.779L596.199 467.779L602.029 467.779L602.029 465.779ZM593.284 465.779L587.454 465.779L587.454 467.779L593.284 467.779L593.284 465.779ZM584.539 465.779L578.71 465.779L578.71 467.779L584.539 467.779L584.539 465.779ZM575.795 465.779L569.965 465.779L569.965 467.779L575.795 467.779L575.795 465.779ZM567.05 465.779L561.22 465.779L561.22 467.779L567.05 467.779L567.05 465.779ZM558.305 465.779L552.475 465.779L552.475 467.779L558.305 467.779L558.305 465.779ZM549.56 465.779L543.73 465.779L543.73 467.779L549.56 467.779L549.56 465.779ZM540.815 465.779L537.9 465.779L537.9 467.779L540.815 467.779L540.815 465.779ZM537.9 465.779C536.93 465.779 535.97 465.737 535.021 465.655L534.849 467.648C535.855 467.735 536.872 467.779 537.9 467.779L537.9 465.779ZM532.166 465.283C530.252 464.948 528.395 464.448 526.611 463.798L525.926 465.677C527.82 466.367 529.791 466.897 531.821 467.253L532.166 465.283ZM523.951 462.695C522.203 461.878 520.537 460.913 518.972 459.814L517.823 461.452C519.483 462.616 521.25 463.641 523.105 464.507L523.951 462.695ZM516.689 458.06C515.217 456.824 513.856 455.462 512.62 453.991L511.088 455.278C512.399 456.837 513.842 458.281 515.402 459.591L516.689 458.06ZM510.865 451.708C509.767 450.142 508.801 448.477 507.985 446.729L506.173 447.575C507.039 449.43 508.063 451.196 509.228 452.857L510.865 451.708ZM506.882 444.069C506.232 442.284 505.732 440.428 505.397 438.514L503.427 438.859C503.782 440.889 504.313 442.859 505.003 444.753L506.882 444.069ZM505.024 435.659C504.942 434.71 504.9 433.75 504.9 432.779L502.9 432.779C502.9 433.807 502.945 434.825 503.032 435.831L505.024 435.659ZM504.9 432.779L504.9 429.69L502.9 429.69L502.9 432.779L504.9 432.779ZM504.9 426.602L504.9 420.424L502.9 420.424L502.9 426.602L504.9 426.602ZM504.9 417.335L504.9 411.158L502.9 411.158L502.9 417.335L504.9 417.335ZM504.9 408.069L504.9 401.891L502.9 401.891L502.9 408.069L504.9 408.069ZM504.9 398.802L504.9 392.625L502.9 392.625L502.9 398.802L504.9 398.802Z"
      fill="#70788A"
    />
    <path
      d="M767.877 466.273L777.877 460.499L777.877 472.046L767.877 466.273ZM773.768 465.273L779.66 465.273L779.66 467.273L773.768 467.273L773.768 465.273ZM782.606 465.273L788.498 465.273L788.498 467.273L782.606 467.273L782.606 465.273ZM791.444 465.273L797.336 465.273L797.336 467.273L791.444 467.273L791.444 465.273ZM800.282 465.273L806.173 465.273L806.173 467.273L800.282 467.273L800.282 465.273ZM809.119 465.273L815.011 465.273L815.011 467.273L809.119 467.273L809.119 465.273ZM817.957 465.273L823.849 465.273L823.849 467.273L817.957 467.273L817.957 465.273ZM826.795 465.273L832.686 465.273L832.686 467.273L826.795 467.273L826.795 465.273ZM835.632 465.273L841.524 465.273L841.524 467.273L835.632 467.273L835.632 465.273ZM844.47 465.273L850.362 465.273L850.362 467.273L844.47 467.273L844.47 465.273ZM853.308 465.273L856.253 465.273L856.253 467.273L853.308 467.273L853.308 465.273ZM856.253 465.273C857.224 465.273 858.184 465.231 859.133 465.149L859.305 467.142C858.299 467.229 857.281 467.273 856.253 467.273L856.253 465.273ZM861.988 464.777C863.902 464.441 865.758 463.941 867.543 463.292L868.227 465.171C866.334 465.86 864.363 466.391 862.333 466.747L861.988 464.777ZM870.203 462.189C871.951 461.372 873.616 460.406 875.182 459.308L876.331 460.945C874.67 462.11 872.904 463.134 871.049 464.001L870.203 462.189ZM877.465 457.554C878.936 456.318 880.298 454.956 881.534 453.485L883.065 454.771C881.755 456.331 880.311 457.775 878.752 459.085L877.465 457.554ZM883.288 451.202C884.387 449.636 885.352 447.971 886.169 446.222L887.981 447.069C887.115 448.924 886.09 450.69 884.926 452.35L883.288 451.202ZM887.272 443.563C887.922 441.778 888.422 439.921 888.757 438.008L890.727 438.353C890.371 440.383 889.841 442.353 889.151 444.247L887.272 443.563ZM889.13 435.152C889.212 434.204 889.253 433.243 889.253 432.273L891.253 432.273C891.253 433.301 891.209 434.319 891.122 435.325L889.13 435.152ZM889.253 432.273L889.253 429.203L891.253 429.203L891.253 432.273L889.253 432.273ZM889.253 426.133L889.253 419.994L891.253 419.994L891.253 426.133L889.253 426.133ZM889.253 416.924L889.253 410.784L891.253 410.784L891.253 416.924L889.253 416.924ZM889.253 407.715L889.253 401.575L891.253 401.575L891.253 407.715L889.253 407.715ZM889.253 398.505L889.253 392.366L891.253 392.366L891.253 398.505L889.253 398.505ZM889.253 389.296L889.253 386.226L891.253 386.226L891.253 389.296L889.253 389.296Z"
      fill="#70788A"
    />
    <g filter="url(#filter2_d_112_125)">
      <rect
        x="446.135"
        y="34.5269"
        width="133"
        height="133"
        rx="66.5"
        fill="#1886FF"
        shape-rendering="crispEdges"
      />
      <g clip-path="url(#clip2_112_125)">
        <path
          fill-rule="evenodd"
          clip-rule="evenodd"
          d="M502.313 71.2049C504.777 65.2505 510.643 61.0612 517.487 61.0612C526.553 61.0612 533.902 68.4101 533.902 77.4755C533.902 84.5482 529.428 90.5761 523.157 92.8844V75.0644C523.157 72.9328 521.429 71.2049 519.297 71.2049H502.313ZM498.783 71.2049C501.403 63.3866 508.787 57.7531 517.487 57.7531C528.38 57.7531 537.21 66.5831 537.21 77.4755C537.21 86.3972 531.286 93.9354 523.157 96.371V102.441C523.157 104.573 521.429 106.301 519.297 106.301H491.921C489.789 106.301 488.061 104.573 488.061 102.441V75.0644C488.061 72.9328 489.789 71.2049 491.921 71.2049H498.783ZM519.849 97.0581V102.441C519.849 102.746 519.602 102.993 519.297 102.993H491.921C491.616 102.993 491.369 102.746 491.369 102.441V75.0644C491.369 74.7599 491.616 74.513 491.921 74.513H497.986C497.84 75.4793 497.765 76.4686 497.765 77.4755C497.765 88.368 506.595 97.198 517.487 97.198C518.286 97.198 519.074 97.1505 519.849 97.0581ZM516.856 80.868L517.883 79.5718L515.291 77.5168L514.263 78.813L510.274 83.8457L508.289 82.0025L507.077 80.877L504.826 83.3012L506.038 84.4267L509.333 87.487C509.671 87.8008 510.125 87.9592 510.585 87.9242C511.044 87.8891 511.469 87.6637 511.755 87.3024L516.856 80.868Z"
          fill="white"
        />
      </g>
      <path
        d="M479.44 133.493L476.912 122.325H479.312L480.368 127.685L480.96 130.789H481.008L481.712 127.685L482.944 122.325H485.6L486.848 127.685L487.536 130.789H487.584L488.176 127.685L489.248 122.325H491.552L488.96 133.493H486.192L484.784 127.445L484.24 124.997H484.192L483.632 127.445L482.224 133.493H479.44ZM494.298 124.197C493.818 124.197 493.466 124.091 493.242 123.877C493.029 123.653 492.922 123.371 492.922 123.029V122.677C492.922 122.336 493.029 122.059 493.242 121.845C493.466 121.621 493.818 121.509 494.298 121.509C494.778 121.509 495.125 121.621 495.338 121.845C495.562 122.059 495.674 122.336 495.674 122.677V123.029C495.674 123.371 495.562 123.653 495.338 123.877C495.125 124.091 494.778 124.197 494.298 124.197ZM493.114 125.093H495.482V133.493H493.114V125.093ZM500.636 133.493C499.815 133.493 499.191 133.285 498.764 132.869C498.348 132.453 498.14 131.845 498.14 131.045V126.933H496.956V125.093H497.548C497.868 125.093 498.087 125.019 498.204 124.869C498.322 124.709 498.38 124.485 498.38 124.197V122.821H500.508V125.093H502.172V126.933H500.508V131.653H502.044V133.493H500.636ZM503.817 121.653H506.185V126.517H506.281C506.431 126.08 506.692 125.701 507.065 125.381C507.439 125.061 507.956 124.901 508.617 124.901C509.481 124.901 510.132 125.189 510.569 125.765C511.017 126.341 511.241 127.163 511.241 128.229V133.493H508.873V128.421C508.873 127.877 508.788 127.477 508.617 127.221C508.447 126.955 508.143 126.821 507.705 126.821C507.513 126.821 507.327 126.848 507.145 126.901C506.964 126.944 506.799 127.019 506.649 127.125C506.511 127.232 506.399 127.365 506.313 127.525C506.228 127.675 506.185 127.851 506.185 128.053V133.493H503.817V121.653ZM517.546 126.933H516.362V125.093H517.546V124.101C517.546 123.291 517.759 122.683 518.186 122.277C518.613 121.861 519.237 121.653 520.058 121.653H521.594V123.493H519.914V125.093H521.594V126.933H519.914V133.493H517.546V126.933ZM526.353 133.685C525.713 133.685 525.142 133.584 524.641 133.381C524.139 133.168 523.713 132.875 523.361 132.501C523.019 132.117 522.758 131.653 522.577 131.109C522.406 130.565 522.321 129.957 522.321 129.285C522.321 128.624 522.406 128.027 522.577 127.493C522.747 126.949 522.998 126.485 523.329 126.101C523.67 125.717 524.086 125.424 524.577 125.221C525.067 125.008 525.627 124.901 526.257 124.901C526.95 124.901 527.542 125.019 528.033 125.253C528.534 125.488 528.939 125.803 529.249 126.197C529.569 126.592 529.798 127.051 529.937 127.573C530.086 128.085 530.161 128.624 530.161 129.189V129.893H524.769V130.021C524.769 130.576 524.918 131.019 525.217 131.349C525.515 131.669 525.985 131.829 526.625 131.829C527.115 131.829 527.515 131.733 527.825 131.541C528.134 131.339 528.422 131.099 528.689 130.821L529.873 132.293C529.499 132.731 529.009 133.072 528.401 133.317C527.803 133.563 527.121 133.685 526.353 133.685ZM526.305 126.645C525.825 126.645 525.446 126.805 525.169 127.125C524.902 127.435 524.769 127.851 524.769 128.373V128.501H527.713V128.357C527.713 127.845 527.595 127.435 527.361 127.125C527.137 126.805 526.785 126.645 526.305 126.645ZM535.57 124.485V133.493H533.138V124.485H530.114V122.325H538.594V124.485H535.57ZM543.686 133.685C542.705 133.685 541.873 133.52 541.19 133.189C540.508 132.848 539.926 132.411 539.446 131.877L541.046 130.261C541.804 131.115 542.737 131.541 543.846 131.541C544.444 131.541 544.886 131.419 545.174 131.173C545.462 130.928 545.606 130.603 545.606 130.197C545.606 129.888 545.521 129.632 545.35 129.429C545.18 129.216 544.833 129.072 544.31 128.997L543.206 128.853C542.022 128.704 541.153 128.347 540.598 127.781C540.054 127.216 539.782 126.464 539.782 125.525C539.782 125.024 539.878 124.565 540.07 124.149C540.262 123.733 540.534 123.376 540.886 123.077C541.249 122.779 541.686 122.549 542.198 122.389C542.721 122.219 543.313 122.133 543.974 122.133C544.817 122.133 545.558 122.267 546.198 122.533C546.838 122.8 547.388 123.189 547.846 123.701L546.23 125.333C545.964 125.024 545.638 124.773 545.254 124.581C544.881 124.379 544.406 124.277 543.83 124.277C543.286 124.277 542.881 124.373 542.614 124.565C542.348 124.757 542.214 125.024 542.214 125.365C542.214 125.749 542.316 126.027 542.518 126.197C542.732 126.368 543.073 126.491 543.542 126.565L544.646 126.741C545.798 126.923 546.652 127.28 547.206 127.813C547.761 128.336 548.038 129.083 548.038 130.053C548.038 130.587 547.942 131.077 547.75 131.525C547.558 131.973 547.276 132.357 546.902 132.677C546.54 132.997 546.086 133.248 545.542 133.429C544.998 133.6 544.38 133.685 543.686 133.685Z"
        fill="white"
      />
    </g>
  </g>
  <defs>
    <filter
      id="filter0_d_112_125"
      x="-10.6675"
      y="213.442"
      width="296.47"
      height="202.882"
      filterUnits="userSpaceOnUse"
      color-interpolation-filters="sRGB"
    >
      <feFlood flood-opacity="0" result="BackgroundImageFix" />
      <feColorMatrix
        in="SourceAlpha"
        type="matrix"
        values="0 0 0 0 0 0 0 0 0 0 0 0 0 0 0 0 0 0 127 0"
        result="hardAlpha"
      />
      <feOffset />
      <feGaussianBlur stdDeviation="20" />
      <feComposite in2="hardAlpha" operator="out" />
      <feColorMatrix
        type="matrix"
        values="0 0 0 0 0.0941176 0 0 0 0 0.52549 0 0 0 0 1 0 0 0 0.3 0"
      />
      <feBlend mode="normal" in2="BackgroundImageFix" result="effect1_dropShadow_112_125" />
      <feBlend mode="normal" in="SourceGraphic" in2="effect1_dropShadow_112_125" result="shape" />
    </filter>
    <filter
      id="filter1_d_112_125"
      x="788.932"
      y="212.859"
      width="202.812"
      height="213.466"
      filterUnits="userSpaceOnUse"
      color-interpolation-filters="sRGB"
    >
      <feFlood flood-opacity="0" result="BackgroundImageFix" />
      <feColorMatrix
        in="SourceAlpha"
        type="matrix"
        values="0 0 0 0 0 0 0 0 0 0 0 0 0 0 0 0 0 0 127 0"
        result="hardAlpha"
      />
      <feOffset />
      <feGaussianBlur stdDeviation="20" />
      <feComposite in2="hardAlpha" operator="out" />
      <feColorMatrix
        type="matrix"
        values="0 0 0 0 0.0941176 0 0 0 0 0.52549 0 0 0 0 1 0 0 0 0.3 0"
      />
      <feBlend mode="normal" in2="BackgroundImageFix" result="effect1_dropShadow_112_125" />
      <feBlend mode="normal" in="SourceGraphic" in2="effect1_dropShadow_112_125" result="shape" />
    </filter>
    <filter
      id="filter2_d_112_125"
      x="406.135"
      y="-5.47314"
      width="213"
      height="213"
      filterUnits="userSpaceOnUse"
      color-interpolation-filters="sRGB"
    >
      <feFlood flood-opacity="0" result="BackgroundImageFix" />
      <feColorMatrix
        in="SourceAlpha"
        type="matrix"
        values="0 0 0 0 0 0 0 0 0 0 0 0 0 0 0 0 0 0 127 0"
        result="hardAlpha"
      />
      <feOffset />
      <feGaussianBlur stdDeviation="20" />
      <feComposite in2="hardAlpha" operator="out" />
      <feColorMatrix
        type="matrix"
        values="0 0 0 0 0.0941176 0 0 0 0 0.52549 0 0 0 0 1 0 0 0 0.8 0"
      />
      <feBlend mode="normal" in2="BackgroundImageFix" result="effect1_dropShadow_112_125" />
      <feBlend mode="normal" in="SourceGraphic" in2="effect1_dropShadow_112_125" result="shape" />
    </filter>
    <linearGradient
      id="paint0_linear_112_125"
      x1="137.568"
      y1="364.441"
      x2="137.568"
      y2="337.847"
      gradientUnits="userSpaceOnUse"
    >
      <stop stop-color="#111827" />
      <stop offset="1" stop-color="#D9D9D9" stop-opacity="0" />
      <stop offset="1" stop-color="#111827" stop-opacity="0" />
    </linearGradient>
    <linearGradient
      id="paint1_linear_112_125"
      x1="844.769"
      y1="221.878"
      x2="891.747"
      y2="269.433"
      gradientUnits="userSpaceOnUse"
    >
      <stop stop-color="#111827" />
      <stop offset="1" stop-color="#D9D9D9" stop-opacity="0" />
      <stop offset="1" stop-color="#111827" stop-opacity="0" />
    </linearGradient>
    <linearGradient
      id="paint2_linear_112_125"
      x1="461.564"
      y1="221.878"
      x2="508.543"
      y2="269.433"
      gradientUnits="userSpaceOnUse"
    >
      <stop stop-color="#111827" />
      <stop offset="1" stop-color="#D9D9D9" stop-opacity="0" />
      <stop offset="1" stop-color="#111827" stop-opacity="0" />
    </linearGradient>
    <clipPath id="clip0_112_125">
      <rect width="979" height="533" fill="white" transform="translate(0.5)" />
    </clipPath>
    <clipPath id="clip1_112_125">
      <rect x="445.679" y="252.981" width="123" height="133" rx="6" fill="white" />
    </clipPath>
    <clipPath id="clip2_112_125">
      <rect width="49.1491" height="52.9329" fill="white" transform="translate(488.061 55.5604)" />
    </clipPath>
  </defs>
</svg>
