<svg width="17" height="16" viewBox="0 0 17 16" fill="none" xmlns="http://www.w3.org/2000/svg">
  <path
    d="M6.32096 12.6667C2.98763 13.6667 2.98763 11 1.6543 10.6667M10.9876 14.6667V12.0867C11.0126 11.7688 10.9697 11.4492 10.8616 11.1492C10.7536 10.8492 10.5829 10.5756 10.361 10.3467C12.4543 10.1133 14.6543 9.32 14.6543 5.68C14.6541 4.74922 14.2961 3.85413 13.6543 3.18C13.9582 2.36567 13.9367 1.46557 13.5943 0.666666C13.5943 0.666666 12.8076 0.433332 10.9876 1.65333C9.45964 1.23921 7.84896 1.23921 6.32096 1.65333C4.50096 0.433332 3.7143 0.666666 3.7143 0.666666C3.37188 1.46557 3.35039 2.36567 3.6543 3.18C3.00771 3.85913 2.64931 4.76231 2.6543 5.7C2.6543 9.31333 4.8543 10.1067 6.94763 10.3667C6.7283 10.5933 6.55914 10.8636 6.45117 11.1599C6.3432 11.4563 6.29884 11.772 6.32096 12.0867V14.6667"
    stroke="currentColor"
    stroke-linecap="round"
    stroke-linejoin="round"
  />
</svg>
