<svg width="38" height="38" viewBox="0 0 38 38" fill="none" xmlns="http://www.w3.org/2000/svg">
  <g clip-path="url(#clip0_264_108)">
    <path
      d="M37.5437 17.1797L29.7361 3.60104C29.1387 2.54159 28.0251 1.8775 26.809 1.85547H11.1908C9.97457 1.8769 8.86071 2.54115 8.26373 3.60104L0.453169 17.1441C-0.151056 18.1955 -0.151056 19.4888 0.453169 20.5403L8.26076 34.1961C8.85162 35.2706 9.96252 35.9568 11.1879 36.004H26.806C28.0313 35.962 29.1442 35.2787 29.7361 34.205L37.5437 20.6263C38.1521 19.558 38.1521 18.248 37.5437 17.1797Z"
      fill="#4285F4"
    />
    <path
      d="M37.5437 17.1797L29.7361 3.60104C29.1387 2.54159 28.0251 1.8775 26.809 1.85547H11.1908C9.97457 1.8769 8.86071 2.54115 8.26373 3.60104L0.453169 17.1441C-0.151056 18.1955 -0.151056 19.4888 0.453169 20.5403L8.26076 34.1961C8.85162 35.2706 9.96252 35.9568 11.1879 36.004H26.806C28.0313 35.962 29.1442 35.2787 29.7361 34.205L37.5437 20.6263C38.1521 19.558 38.1521 18.248 37.5437 17.1797Z"
      fill="#4285F4"
    />
    <g opacity="0.07">
      <path
        d="M37.5437 17.1797L29.7361 3.60104C29.1387 2.54159 28.0251 1.8775 26.809 1.85547H11.1908C9.97457 1.8769 8.86071 2.54115 8.26373 3.60104L0.453169 17.1441C-0.151056 18.1955 -0.151056 19.4888 0.453169 20.5403L8.26076 34.1961C8.85162 35.2706 9.96252 35.9568 11.1879 36.004H26.806C28.0313 35.962 29.1442 35.2787 29.7361 34.205L37.5437 20.6263C38.1521 19.558 38.1521 18.248 37.5437 17.1797Z"
        fill="#0B0D11"
      />
    </g>
    <path
      opacity="0.07"
      d="M27.7826 14.4328L26.7062 15.6069L26.9487 22.5831L25.9284 24.0618L25.337 23.4703H25.8811V21.0513L23.2698 18.44L21.2961 19.4265L14.7499 12.8655L11.5974 14.5541L11.207 17.8249L12.3131 23.8104L13.9159 25.3807L13.1855 26.4187L22.7222 36.1797H26.7062C27.9268 36.1378 29.2487 35.3379 29.8383 34.2684L36.3367 22.9866L27.7826 14.4328Z"
      fill="#0B0D11"
    />
    <mask
      id="mask0_264_108"
      style="mask-type: luminance"
      maskUnits="userSpaceOnUse"
      x="0"
      y="1"
      width="38"
      height="36"
    >
      <path
        d="M37.5437 17.1797L29.7361 3.60104C29.1387 2.54159 28.0251 1.8775 26.809 1.85547H11.1908C9.97457 1.8769 8.86071 2.54115 8.26373 3.60104L0.453169 17.1441C-0.151056 18.1955 -0.151056 19.4888 0.453169 20.5403L8.26076 34.1961C8.85162 35.2706 9.96252 35.9568 11.1879 36.004H26.806C28.0313 35.962 29.1442 35.2787 29.7361 34.205L37.5437 20.6263C38.1521 19.558 38.1521 18.248 37.5437 17.1797Z"
        fill="white"
      />
    </mask>
    <g mask="url(#mask0_264_108)">
      <path
        d="M13.1855 26.4187L14.7499 24.8543L12.4048 22.5091V15.2106L14.7499 12.8654L13.1855 11.301L10.0537 14.4328V23.2869L13.1855 26.4187Z"
        fill="white"
      />
    </g>
    <mask
      id="mask1_264_108"
      style="mask-type: luminance"
      maskUnits="userSpaceOnUse"
      x="0"
      y="1"
      width="38"
      height="36"
    >
      <path
        d="M37.5437 17.1797L29.7361 3.60104C29.1387 2.54159 28.0251 1.8775 26.809 1.85547H11.1908C9.97457 1.8769 8.86071 2.54115 8.26373 3.60104L0.453169 17.1441C-0.151056 18.1955 -0.151056 19.4888 0.453169 20.5403L8.26076 34.1961C8.85162 35.2706 9.96252 35.9568 11.1879 36.004H26.806C28.0313 35.962 29.1442 35.2787 29.7361 34.205L37.5437 20.6263C38.1521 19.558 38.1521 18.248 37.5437 17.1797Z"
        fill="white"
      />
    </mask>
    <g mask="url(#mask1_264_108)">
      <path
        d="M15.6075 19.9689C16.22 19.9689 16.7165 19.4724 16.7165 18.86C16.7165 18.2475 16.22 17.751 15.6075 17.751C14.995 17.751 14.4985 18.2475 14.4985 18.86C14.4985 19.4724 14.995 19.9689 15.6075 19.9689Z"
        fill="white"
      />
    </g>
    <mask
      id="mask2_264_108"
      style="mask-type: luminance"
      maskUnits="userSpaceOnUse"
      x="0"
      y="1"
      width="38"
      height="36"
    >
      <path
        d="M37.5437 17.1797L29.7361 3.60104C29.1387 2.54159 28.0251 1.8775 26.809 1.85547H11.1908C9.97457 1.8769 8.86071 2.54115 8.26373 3.60104L0.453169 17.1441C-0.151056 18.1955 -0.151056 19.4888 0.453169 20.5403L8.26076 34.1961C8.85162 35.2706 9.96252 35.9568 11.1879 36.004H26.806C28.0313 35.962 29.1442 35.2787 29.7361 34.205L37.5437 20.6263C38.1521 19.558 38.1521 18.248 37.5437 17.1797Z"
        fill="white"
      />
    </mask>
    <g mask="url(#mask2_264_108)">
      <path
        d="M18.9254 19.9689C19.5379 19.9689 20.0344 19.4724 20.0344 18.86C20.0344 18.2475 19.5379 17.751 18.9254 17.751C18.3129 17.751 17.8164 18.2475 17.8164 18.86C17.8164 19.4724 18.3129 19.9689 18.9254 19.9689Z"
        fill="white"
      />
    </g>
    <mask
      id="mask3_264_108"
      style="mask-type: luminance"
      maskUnits="userSpaceOnUse"
      x="0"
      y="1"
      width="38"
      height="36"
    >
      <path
        d="M37.5437 17.1797L29.7361 3.60104C29.1387 2.54159 28.0251 1.8775 26.809 1.85547H11.1908C9.97457 1.8769 8.86071 2.54115 8.26373 3.60104L0.453169 17.1441C-0.151056 18.1955 -0.151056 19.4888 0.453169 20.5403L8.26076 34.1961C8.85162 35.2706 9.96252 35.9568 11.1879 36.004H26.806C28.0313 35.962 29.1442 35.2787 29.7361 34.205L37.5437 20.6263C38.1521 19.558 38.1521 18.248 37.5437 17.1797Z"
        fill="white"
      />
    </mask>
    <g mask="url(#mask3_264_108)">
      <path
        d="M22.2438 19.9689C22.8562 19.9689 23.3527 19.4724 23.3527 18.86C23.3527 18.2475 22.8562 17.751 22.2438 17.751C21.6313 17.751 21.1348 18.2475 21.1348 18.86C21.1348 19.4724 21.6313 19.9689 22.2438 19.9689Z"
        fill="white"
      />
    </g>
    <mask
      id="mask4_264_108"
      style="mask-type: luminance"
      maskUnits="userSpaceOnUse"
      x="0"
      y="1"
      width="38"
      height="36"
    >
      <path
        d="M37.5437 17.1797L29.7361 3.60104C29.1387 2.54159 28.0251 1.8775 26.809 1.85547H11.1908C9.97457 1.8769 8.86071 2.54115 8.26373 3.60104L0.453169 17.1441C-0.151056 18.1955 -0.151056 19.4888 0.453169 20.5403L8.26076 34.1961C8.85162 35.2706 9.96252 35.9568 11.1879 36.004H26.806C28.0313 35.962 29.1442 35.2787 29.7361 34.205L37.5437 20.6263C38.1521 19.558 38.1521 18.248 37.5437 17.1797Z"
        fill="white"
      />
    </mask>
    <g mask="url(#mask4_264_108)">
      <path
        d="M24.6508 11.301L23.0864 12.8654L25.4316 15.2106V22.5091L23.0864 24.8543L24.6508 26.4187L27.7826 23.2869V14.4328L24.6508 11.301Z"
        fill="white"
      />
    </g>
  </g>
  <defs>
    <clipPath id="clip0_264_108">
      <rect width="38" height="38" fill="white" />
    </clipPath>
  </defs>
</svg>
