<svg width="36" height="36" viewBox="0 0 36 36" fill="none" xmlns="http://www.w3.org/2000/svg">
  <g clip-path="url(#clip0_112_82)">
    <path
      d="M18.0645 35.952C18.783 35.946 19.494 35.9085 20.2035 35.811C21.8288 35.5999 23.4169 35.1643 24.9225 34.5165C27.0386 33.6085 28.9677 32.3156 30.612 30.7035C32.1257 29.2193 33.3648 27.479 34.2719 25.563C35.0474 23.9141 35.5635 22.1554 35.802 20.349C36.0255 18.609 36.0045 16.83 35.7345 15.1005C35.509 13.6634 35.1095 12.2591 34.545 10.9185C34.1848 10.0764 33.7564 9.26518 33.264 8.49296C31.512 5.73746 28.9724 3.52196 26.049 2.04296C25.0049 1.50968 23.9144 1.07286 22.791 0.737962H22.7835C22.962 0.832462 23.1435 0.935962 23.301 1.03946C23.481 1.15046 23.6595 1.25846 23.8275 1.37696C24.6809 1.95002 25.4656 2.61943 26.166 3.37196C27.7605 5.08946 28.8615 7.19396 29.493 9.43346C29.919 10.9065 30.144 12.4305 30.2355 13.959C30.3015 15.0735 30.3015 16.1955 30.165 17.3025C29.9415 19.2075 29.334 21.0675 28.323 22.6965C27.5786 23.9103 26.6098 24.9712 25.4685 25.8225C23.6025 27.2145 21.153 28.0455 18.8145 27.4935C18.4283 27.4027 18.0524 27.273 17.6925 27.1065C17.2822 26.9194 16.8909 26.6934 16.524 26.4315C15.8289 25.9671 15.2011 25.4094 14.658 24.774C13.9991 23.9885 13.4681 23.1042 13.0845 22.1535C12.6146 20.9371 12.3637 19.6472 12.3435 18.3435C12.2985 16.434 12.681 14.514 13.6245 12.8385C14.2565 11.7232 15.1045 10.7452 16.119 9.96146C16.4565 9.69446 16.815 9.46196 17.175 9.24296L17.1989 9.23246C16.4906 9.07053 15.7628 9.00993 15.0375 9.05246C14.4107 9.09427 13.7918 9.21523 13.1955 9.41246C12.657 9.59246 12.1395 9.81746 11.667 10.0875C11.2831 10.3078 10.9157 10.5554 10.5675 10.8285C10.251 11.0985 9.93745 11.3685 9.64495 11.661C7.96045 13.3905 6.99295 15.684 6.61195 18.045C6.38695 19.5045 6.38695 20.985 6.47545 22.47C6.63295 24.5625 7.06195 26.6505 7.89295 28.563C8.3991 29.745 9.08078 30.8439 9.91495 31.8225C11.1914 33.2966 12.8023 34.4436 14.613 35.1675C15.6271 35.5821 16.6937 35.8546 17.7824 35.9775C17.8934 36 18.006 36 18.096 36L18.0645 35.952ZM13.6635 35.355C13.4316 35.2549 13.2062 35.1407 12.9885 35.013C11.8595 34.4041 10.8289 33.6284 9.93145 32.712C8.29045 31.0065 7.19095 28.863 6.56095 26.592C6.14601 25.0367 5.89712 23.4417 5.81845 21.834C5.75196 20.7929 5.77504 19.7481 5.88745 18.711C6.08995 16.8255 6.62995 14.9595 7.57345 13.341C8.2515 12.147 9.16071 11.1001 10.248 10.2615C10.9921 9.69113 11.8179 9.23604 12.6975 8.91146C14.4006 8.29482 16.2621 8.27104 17.9805 8.84396C18.024 8.84396 18.0239 8.84396 18.0479 8.88896C18.0704 8.91146 18.1155 8.91146 18.138 8.93396C18.2055 8.95796 18.294 9.00146 18.3855 9.04496C18.744 9.22496 19.104 9.45146 19.4415 9.67496C20.8018 10.6275 21.8868 11.9221 22.5869 13.428C23.2169 14.799 23.5095 16.329 23.5335 17.835C23.5545 19.4535 23.2634 21.0705 22.5659 22.554C21.7153 24.3433 20.3335 25.8267 18.609 26.802C18.744 26.847 18.879 26.8695 19.0155 26.9145C19.353 26.9805 19.6889 27.0255 20.0474 27.0255C22.2494 27.093 24.3855 26.0355 25.9575 24.555C26.25 24.285 26.52 23.9925 26.7675 23.6775C27.105 23.2725 27.42 22.8675 27.6885 22.443C28.047 21.8805 28.341 21.318 28.6095 20.712C28.9527 19.9097 29.2087 19.0729 29.373 18.216C29.667 16.71 29.6895 15.183 29.5965 13.677C29.394 10.644 28.587 7.60946 26.8335 5.09096C26.5742 4.71776 26.2963 4.35781 26.001 4.01246C25.5091 3.4562 24.9761 2.93774 24.4065 2.46146C23.771 1.9389 23.0862 1.47924 22.362 1.08896C21.5448 0.71395 20.6953 0.413724 19.8239 0.191962L19.374 0.101962C19.0605 0.0569622 18.7439 0.0359622 18.4229 0.0119622C17.9154 -0.0105456 17.407 -0.00253112 16.9005 0.0359622C15.8445 0.103462 14.7825 0.275962 13.7325 0.541462C8.69845 1.84046 4.29445 5.34896 1.94995 10.005C1.2018 11.4882 0.665572 13.0691 0.356952 14.7015C0.00155607 16.5684 -0.0511172 18.4803 0.200952 20.364C0.380952 21.894 0.761952 23.3985 1.36795 24.8295C1.70845 25.6845 2.13445 26.5155 2.60545 27.3015C4.24645 29.976 6.62995 32.1555 9.37045 33.6615C10.4025 34.2465 11.4825 34.6965 12.606 35.0775C12.945 35.1885 13.281 35.3025 13.6395 35.3925L13.6635 35.355Z"
      fill="#1886FF"
    />
  </g>
  <defs>
    <clipPath id="clip0_112_82">
      <rect width="36" height="36" fill="white" />
    </clipPath>
  </defs>
</svg>
