<svg width="38" height="38" viewBox="0 0 38 38" fill="none" xmlns="http://www.w3.org/2000/svg">
  <g clip-path="url(#clip0_264_223)">
    <path
      d="M17.7556 0.0102259C17.6739 0.017654 17.4139 0.0436521 17.1799 0.0622222C11.7826 0.548759 6.72708 3.46055 3.52512 7.93594C1.74213 10.4243 0.60176 13.247 0.17087 16.2368C0.0185728 17.2804 0 17.5887 0 19.0037C0 20.4188 0.0185728 20.727 0.17087 21.7707C1.20352 28.9053 6.28133 34.8997 13.1681 37.1207C14.4014 37.5181 15.7015 37.7892 17.1799 37.9526C17.7556 38.0158 20.2444 38.0158 20.8201 37.9526C23.372 37.6704 25.5339 37.039 27.6661 35.9508C27.993 35.7837 28.0561 35.7391 28.0115 35.702C27.9818 35.6797 26.5889 33.8115 24.9173 31.5534L21.8788 27.4494L18.0714 21.8152C15.9763 18.7177 14.2528 16.1848 14.2379 16.1848C14.2231 16.1811 14.2082 18.6843 14.2008 21.741C14.1896 27.0929 14.1859 27.3083 14.1191 27.4345C14.0225 27.6165 13.9482 27.6908 13.7922 27.7725C13.6733 27.8319 13.5693 27.8431 13.0084 27.8431H12.3658L12.1949 27.7354C12.0835 27.6648 12.0018 27.572 11.946 27.4643L11.868 27.2971L11.8755 19.8505L11.8866 12.4002L12.0018 12.2553C12.0612 12.1774 12.1875 12.0771 12.2766 12.0288C12.4289 11.9545 12.4884 11.9471 13.131 11.9471C13.8888 11.9471 14.0151 11.9768 14.2119 12.1922C14.2676 12.2516 16.3292 15.3566 18.7957 19.0966C21.2622 22.8366 24.635 27.9434 26.2917 30.4503L29.3005 35.0074L29.4528 34.9072C30.8012 34.0306 32.2276 32.7827 33.3568 31.4828C35.7601 28.7233 37.3091 25.3584 37.8291 21.7707C37.9814 20.727 38 20.4188 38 19.0037C38 17.5887 37.9814 17.2804 37.8291 16.2368C36.7965 9.10215 31.7187 3.10772 24.8319 0.886734C23.6172 0.493048 22.3245 0.221925 20.8759 0.0585082C20.5193 0.021368 18.0639 -0.0194862 17.7556 0.0102259ZM25.5339 11.5014C25.7122 11.5905 25.8571 11.7614 25.9091 11.9397C25.9388 12.0362 25.9462 14.1012 25.9388 18.7549L25.9277 25.4327L24.7501 23.6277L23.5689 21.8227V16.9684C23.5689 13.8301 23.5838 12.0659 23.6061 11.9805C23.6655 11.7725 23.7955 11.6091 23.9738 11.5125C24.1261 11.4345 24.1818 11.4271 24.765 11.4271C25.3148 11.4271 25.4113 11.4345 25.5339 11.5014Z"
      fill="#0B0D11"
    />
  </g>
  <defs>
    <clipPath id="clip0_264_223">
      <rect width="38" height="38" fill="white" />
    </clipPath>
  </defs>
</svg>
