<svg width="37" height="36" viewBox="0 0 37 36" fill="none" xmlns="http://www.w3.org/2000/svg">
  <g clip-path="url(#clip0_112_77)">
    <path
      d="M32.225 0C31.4697 0.000190487 30.7269 0.193122 30.067 0.560533C29.4071 0.927944 28.8519 1.45768 28.4539 2.0996C28.0559 2.74152 27.8283 3.47439 27.7926 4.22885C27.7569 4.9833 27.9143 5.73438 28.25 6.411L18.5795 16.0815C17.6363 15.613 16.5573 15.4949 15.5351 15.7485C14.513 16.0021 13.6142 16.6107 12.9994 17.4657C12.3845 18.3208 12.0936 19.3665 12.1786 20.4163C12.2636 21.466 12.719 22.4513 13.4634 23.1963C14.2078 23.9412 15.1928 24.3973 16.2425 24.4831C17.2921 24.5689 18.3381 24.2788 19.1936 23.6646C20.0491 23.0504 20.6584 22.1521 20.9127 21.1301C21.1671 20.1081 21.0498 19.029 20.582 18.0855L30.2525 8.415C30.8517 8.71213 31.5104 8.86999 32.1792 8.87677C32.848 8.88355 33.5097 8.73909 34.1149 8.45418C34.72 8.16927 35.253 7.75127 35.6738 7.23143C36.0947 6.71159 36.3927 6.10335 36.5454 5.45217C36.6982 4.80099 36.7018 4.1237 36.556 3.47093C36.4102 2.81815 36.1187 2.20677 35.7034 1.68248C35.2881 1.15818 34.7596 0.734535 34.1576 0.44319C33.5555 0.151846 32.8954 0.000341841 32.2265 0H32.225ZM16.6085 4.1175C16.5005 4.1175 16.394 4.122 16.2875 4.1235C16.1795 4.1265 16.073 4.1265 15.965 4.131C15.2945 4.158 14.6255 4.227 13.9625 4.338L13.9175 4.3455L13.64 4.395L13.4825 4.425C13.3374 4.45323 13.1929 4.48424 13.049 4.518L13.001 4.53C11.6705 4.84012 10.3851 5.319 9.176 5.955L8.9435 6.0885C8.849 6.1395 8.756 6.1935 8.663 6.246C8.594 6.2865 8.5235 6.3225 8.453 6.3645L8.4365 6.372L8.3825 6.402V6.405L8.549 6.681L13.274 14.526C13.4587 14.4153 13.6489 14.3141 13.844 14.223C14.6093 13.8578 15.4392 13.6472 16.286 13.6035C16.3925 13.5975 16.5005 13.5915 16.607 13.5915L16.6085 4.1175ZM17.2505 4.1325V13.632C17.738 13.683 18.221 13.7865 18.6905 13.9455L25.6805 6.9555C25.421 6.7755 25.1585 6.6 24.8885 6.435L24.8495 6.4125C24.7655 6.36 24.6815 6.312 24.5975 6.2625L24.4505 6.1785L24.302 6.096C24.2169 6.04935 24.1314 6.00335 24.0455 5.958L24.005 5.937C23.316 5.57679 22.6016 5.26747 21.8675 5.0115C20.8325 4.65 19.763 4.3965 18.6755 4.254L18.542 4.236L18.407 4.221C18.3221 4.21039 18.2371 4.20089 18.152 4.1925L18.0785 4.1865L17.7725 4.161C17.6452 4.15097 17.5176 4.14347 17.39 4.1385C17.3435 4.134 17.297 4.134 17.2505 4.1325ZM7.8395 6.747C7.11452 7.21774 6.43194 7.75075 5.7995 8.34L12.491 15.0315L12.518 15.0585C12.5915 14.9985 12.665 14.9415 12.7415 14.8845L12.725 14.8575L7.8395 6.747ZM5.3345 8.787C5.2595 8.862 5.1875 8.9415 5.114 9.018L4.8905 9.2505C4.3955 9.786 3.9455 10.3455 3.5375 10.9275L3.479 11.0115C3.368 11.1725 3.25998 11.3355 3.155 11.5005C1.64455 13.8732 0.790505 16.604 0.680004 19.4145L0.671004 19.737L0.666504 20.058H10.142C10.142 19.95 10.1525 19.8435 10.157 19.737C10.1645 19.629 10.166 19.521 10.1765 19.4145C10.298 18.1815 10.775 16.977 11.6045 15.9645C11.672 15.882 11.7485 15.8055 11.8205 15.7245C11.8925 15.6465 11.96 15.564 12.0365 15.4875L5.3345 8.787ZM29.717 10.983L22.7225 17.9775C22.8815 18.4455 22.985 18.9285 23.0375 19.416H32.5355L32.5295 19.275C32.518 19.0467 32.502 18.8187 32.4815 18.591L32.474 18.513C32.4621 18.3924 32.4491 18.2719 32.435 18.1515V18.138L32.3855 17.778V17.7645C32.276 17.0072 32.1121 16.2587 31.895 15.525L31.8905 15.51C31.8564 15.3957 31.8214 15.2817 31.7855 15.168L31.7705 15.123C31.7368 15.0207 31.7023 14.9187 31.667 14.817L31.637 14.7345C31.5683 14.5291 31.4917 14.3265 31.4075 14.127C31.3628 14.0128 31.3163 13.8993 31.268 13.7865C31.2368 13.7144 31.2053 13.6423 31.1735 13.5705L31.118 13.449C31.0786 13.3632 31.0386 13.2777 30.998 13.1925L30.962 13.1145L30.818 12.8235L30.797 12.783C30.7421 12.6764 30.6861 12.5704 30.629 12.465L30.623 12.453C30.3478 11.947 30.0454 11.4563 29.717 10.983ZM23.072 20.058C23.072 20.1645 23.063 20.271 23.057 20.379C23.0525 20.487 23.0495 20.5935 23.039 20.7C22.9147 21.9664 22.4178 23.1675 21.611 24.1515C21.5435 24.234 21.467 24.312 21.395 24.3915C21.323 24.471 21.2555 24.5535 21.179 24.63L27.8795 31.3305C27.956 31.254 28.028 31.1745 28.1015 31.098C28.1765 31.02 28.2515 30.9435 28.3235 30.8655C28.82 30.3285 29.273 29.766 29.681 29.1825L29.729 29.1135L29.876 28.8975L30.0035 28.7025L30.0635 28.608C31.5716 26.2367 32.424 23.508 32.534 20.7C32.5385 20.5935 32.54 20.4855 32.543 20.379C32.5445 20.2725 32.549 20.1645 32.549 20.058H23.072ZM0.681504 20.7L0.687504 20.8395L0.702504 21.108L0.710004 21.222L0.735504 21.531L0.743004 21.6C0.753504 21.714 0.765504 21.8295 0.779004 21.942L0.783504 21.975C0.798388 22.0992 0.81489 22.2232 0.833004 22.347C0.941004 23.1045 1.106 23.8545 1.3235 24.5925L1.3265 24.6015C1.3595 24.717 1.397 24.8325 1.433 24.9465L1.439 24.9675L1.4465 24.9885C1.51976 25.2091 1.59627 25.4286 1.676 25.647L1.721 25.767L1.8095 25.989C1.85418 26.1037 1.90068 26.2177 1.949 26.331L2.042 26.541L2.099 26.667L2.216 26.9205L2.2565 27.0015C2.36388 27.2246 2.47641 27.4451 2.594 27.663L2.6315 27.7275L10.7435 22.8405L10.7735 22.8225C10.4563 22.1545 10.2559 21.4372 10.181 20.7015H10.1435L0.681504 20.7ZM1.439 24.9675L1.13 25.056L1.133 25.0635L1.439 24.9675ZM11.0765 23.391L2.954 28.284C3.0785 28.4925 3.209 28.6935 3.3425 28.893L3.3545 28.914L3.3605 28.9215L3.3725 28.9425C3.383 28.9605 3.395 28.9755 3.407 28.9905L3.4085 28.9935C3.55246 29.2056 3.7015 29.4156 3.8555 29.6205L3.8645 29.6325C4.00516 29.8199 4.1502 30.0039 4.2995 30.1845L4.349 30.2445C4.4135 30.3225 4.478 30.399 4.544 30.474L4.6295 30.5715L4.7975 30.762L4.8935 30.8655L4.937 30.912L5.0615 31.047L5.114 31.0995C5.1875 31.176 5.261 31.254 5.3375 31.329L12.0365 24.63C11.8852 24.4776 11.7425 24.3168 11.609 24.1485C11.4136 23.9088 11.2366 23.6556 11.0765 23.391ZM20.7005 25.0575C20.6255 25.1175 20.5505 25.176 20.4755 25.2315L20.492 25.2585L25.3775 33.369C25.604 33.2205 25.8275 33.069 26.0465 32.9085C26.519 32.5605 26.9765 32.1825 27.4175 31.7745L20.7275 25.0845L20.7005 25.0575ZM12.515 25.062L12.4925 25.0845L5.8025 31.7745C5.89871 31.8639 5.99622 31.9519 6.095 32.0385C6.128 32.0685 6.1595 32.0985 6.1925 32.1255L6.4205 32.3205C6.52687 32.4089 6.63438 32.4959 6.743 32.5815L6.7775 32.607L7.064 32.829L7.076 32.8365C7.478 33.1365 7.8965 33.42 8.327 33.6825L8.372 33.7095L8.618 33.855L8.7695 33.9405C8.90239 34.0183 9.03744 34.0923 9.1745 34.1625C9.1865 34.1685 9.1985 34.1775 9.212 34.182C9.455 34.3095 9.7025 34.428 9.9515 34.542L10.1885 33.9645L13.553 25.7925L13.5665 25.7625C13.1941 25.5637 12.8419 25.3291 12.515 25.062ZM19.9415 25.5915C19.85 25.647 19.7555 25.6965 19.661 25.7475C18.156 26.556 16.3925 26.7372 14.7545 26.2515C14.651 26.2215 14.552 26.181 14.45 26.145C14.3495 26.109 14.246 26.079 14.147 26.037L10.784 34.203L10.652 34.5225L10.5395 34.797L10.565 34.809C10.5742 34.8132 10.5838 34.8167 10.5935 34.8195L10.601 34.824C10.679 34.8555 10.76 34.884 10.8395 34.914C10.94 34.9545 11.039 34.9935 11.1395 35.0295L11.2925 35.0895C12.3455 35.46 13.4375 35.7195 14.5445 35.8665L14.675 35.8845L14.81 35.8995L15.068 35.928C15.1938 35.9412 15.3198 35.9522 15.446 35.961C15.4805 35.9625 15.518 35.9625 15.5525 35.9655L15.8285 35.982L15.9965 35.9895C16.1754 35.9975 16.3544 36.001 16.5335 36H16.6085C17.5097 36.0009 18.4094 35.9256 19.298 35.775L19.5755 35.724L19.733 35.694L19.8965 35.6595L20.1665 35.5995L20.2145 35.5875C21.545 35.2775 22.8305 34.7986 24.0395 34.1625C24.1175 34.1205 24.1955 34.0725 24.2735 34.029C24.368 33.978 24.461 33.924 24.554 33.8715C24.6185 33.8355 24.6845 33.801 24.749 33.762L24.7535 33.759L24.7565 33.7575L24.7595 33.756L24.77 33.75L24.833 33.7125L24.668 33.438L24.503 33.162L19.9415 25.5915ZM24.833 33.7125L24.77 33.75L24.8345 33.714L24.833 33.7125Z"
      fill="#1886FF"
    />
  </g>
  <defs>
    <clipPath id="clip0_112_77">
      <rect width="36" height="36" fill="white" transform="translate(0.666504)" />
    </clipPath>
  </defs>
</svg>
