<svg width="37" height="36" viewBox="0 0 37 36" fill="none" xmlns="http://www.w3.org/2000/svg">
    <g clip-path="url(#clip0_112_87)">
        <path d="M2.02051 0C1.08601 0 0.333008 0.753 0.333008 1.6875V34.3125C0.333008 35.247 1.08601 36 2.02051 36H34.6455C35.58 36 36.333 35.247 36.333 34.3125V1.6875C36.333 0.753 35.58 0 34.6455 0H2.02051ZM28.065 14.625C28.983 14.625 29.796 14.6805 30.5055 14.7915C31.1747 14.8918 31.8314 15.0627 32.4645 15.3015V18.9885C32.1606 18.7783 31.8377 18.597 31.5 18.447C31.1518 18.2903 30.7923 18.1599 30.4245 18.057C29.7279 17.8629 29.0086 17.762 28.2855 17.757C27.8355 17.757 27.426 17.799 27.057 17.886C26.7281 17.9563 26.4126 18.0789 26.1225 18.249C25.8675 18.405 25.6725 18.5925 25.533 18.81C25.3927 19.0292 25.3197 19.2847 25.323 19.545C25.323 19.839 25.4025 20.1045 25.557 20.3385C25.713 20.5725 25.935 20.7945 26.2215 21.0045C26.508 21.2145 26.856 21.4185 27.2655 21.6195C27.675 21.822 28.1385 22.0305 28.6545 22.2435C29.3595 22.539 29.9925 22.854 30.5535 23.1855C31.1145 23.5185 31.596 23.895 31.998 24.315C32.4 24.7335 32.706 25.212 32.919 25.7505C33.132 26.289 33.24 26.9145 33.24 27.63C33.24 28.6155 33.0525 29.445 32.6805 30.114C32.317 30.7738 31.7954 31.333 31.1625 31.7415C30.4803 32.1741 29.7241 32.4772 28.932 32.6355C28.083 32.8155 27.1875 32.9055 26.247 32.9055C25.3214 32.9096 24.3973 32.8272 23.487 32.6595C22.6994 32.5233 21.9355 32.2742 21.219 31.92V27.975C22.5747 29.1287 24.2944 29.7662 26.0745 29.775C26.574 29.775 27.0105 29.73 27.3825 29.64C27.756 29.55 28.0665 29.424 28.317 29.265C28.566 29.103 28.752 28.914 28.8765 28.695C29.0141 28.44 29.0767 28.1513 29.0571 27.8622C29.0374 27.5731 28.9363 27.2955 28.7655 27.0615C28.5426 26.7666 28.2701 26.5128 27.96 26.3115C27.5755 26.0566 27.1706 25.8339 26.7495 25.6455C26.2504 25.4176 25.7468 25.1995 25.239 24.9915C23.862 24.417 22.836 23.7135 22.1595 22.884C21.4845 22.0545 21.1455 21.051 21.1455 19.8765C21.1455 18.9555 21.33 18.165 21.699 17.5035C22.068 16.842 22.569 16.2975 23.205 15.87C23.8777 15.4262 24.6245 15.1067 25.41 14.9265C26.28 14.7214 27.1712 14.6202 28.065 14.625ZM5.39551 14.907H19.74V18.156H14.592V32.625H10.5165V18.156H5.39551V14.907Z"
              fill="#1886FF"/>
    </g>
    <defs>
        <clipPath id="clip0_112_87">
            <rect width="36" height="36" fill="white" transform="translate(0.333008)"/>
        </clipPath>
    </defs>
</svg>
