<svg width="38" height="38" viewBox="0 0 38 38" fill="none" xmlns="http://www.w3.org/2000/svg">
  <path
    d="M28.5653 26.2129H33.2827V14.8863L27.9679 9.57154L24.6322 12.9073L28.5653 16.8405V26.2129ZM33.2951 28.5778H26.4245H16.8405L12.9073 24.6446L14.5752 22.9767L17.8238 26.2253H24.5077L17.9234 19.6285L19.6037 17.9482L26.188 24.5326V17.8486L22.9519 14.6125L24.6073 12.9571L16.4297 4.74219H8.36423H0L4.70488 9.44707V9.45951H4.72977H14.4632L17.9109 12.9073L12.87 17.9482L9.42221 14.5005V11.8244H4.70488V16.4546L12.87 24.6197L9.54668 27.943L14.8614 33.2577H22.927H38L33.2951 28.5778Z"
    fill="#231F20"
  />
</svg>
